<svg height="464pt" viewBox="0 -16 464 464" width="464pt" xmlns="http://www.w3.org/2000/svg"><path d="m24 240h416v144h-416zm0 0" fill="#a97c50"/><path d="m24 96h416v144h-416zm0 0" fill="#c49a6c"/><path d="m384 312h24v40h-24zm0 0" fill="#bcbec0"/><path d="m336 312h24v40h-24zm0 0" fill="#bcbec0"/><path d="m128 312h24v40h-24zm0 0" fill="#bcbec0"/><path d="m80 312h24v40h-24zm0 0" fill="#bcbec0"/><path d="m384 168h24v40h-24zm0 0" fill="#bcbec0"/><path d="m336 168h24v40h-24zm0 0" fill="#bcbec0"/><path d="m256 168h24v40h-24zm0 0" fill="#bcbec0"/><path d="m208 168h24v40h-24zm0 0" fill="#bcbec0"/><path d="m128 168h24v40h-24zm0 0" fill="#bcbec0"/><path d="m80 168h24v40h-24zm0 0" fill="#bcbec0"/><g fill="#d1d3d4"><path d="m184 272h96v112h-96zm0 0"/><path d="m360 312h24v40h-24zm0 0"/><path d="m312 312h24v40h-24zm0 0"/><path d="m104 312h24v40h-24zm0 0"/><path d="m56 312h24v40h-24zm0 0"/><path d="m360 168h24v40h-24zm0 0"/><path d="m312 168h24v40h-24zm0 0"/><path d="m232 168h24v40h-24zm0 0"/><path d="m184 168h24v40h-24zm0 0"/><path d="m104 168h24v40h-24zm0 0"/><path d="m56 168h24v40h-24zm0 0"/></g><path d="m152 272v40h-96v-40zm0 0" fill="#e6e7e8"/><path d="m408 272v40h-96v-40zm0 0" fill="#e6e7e8"/><path d="m408 128v40h-96v-40zm0 0" fill="#e6e7e8"/><path d="m280 128v40h-96v-40zm0 0" fill="#e6e7e8"/><path d="m152 128v40h-96v-40zm0 0" fill="#e6e7e8"/><path d="m184 384h96v24h-96zm0 0" fill="#3e3d42"/><path d="m184 408h96v24h-96zm0 0" fill="#2d2d30"/><path d="m184 408v24h-176c-4.417969 0-8-3.582031-8-8v-32c0-4.417969 3.582031-8 8-8h176zm0 0" fill="#57565c"/><path d="m464 392v32c0 4.417969-3.582031 8-8 8h-176v-48h176c4.417969 0 8 3.582031 8 8zm0 0" fill="#57565c"/><path d="m460.480469 85.441406c.824219 2.445313.421875 5.136719-1.085938 7.230469-1.507812 2.097656-3.933593 3.335937-6.515625 3.328125h-441.757812c-2.582032.007812-5.007813-1.230469-6.515625-3.328125-1.507813-2.09375-1.910157-4.785156-1.085938-7.230469l26.640625-80c1.128906-3.238281 4.171875-5.4179685 7.601563-5.441406h388.476562c3.429688.0234375 6.472657 2.203125 7.601563 5.441406zm0 0" fill="#754c29"/><path d="m24 96h416v16h-416zm0 0" fill="#a97c50"/><path d="m24 240h416v16h-416zm0 0" fill="#8b5e3c"/><path d="m56 128h96v16h-96zm0 0" fill="#d1d3d4"/><path d="m184 128h96v16h-96zm0 0" fill="#d1d3d4"/><path d="m312 128h96v16h-96zm0 0" fill="#d1d3d4"/><path d="m56 272h96v16h-96zm0 0" fill="#d1d3d4"/><path d="m184 272h96v16h-96zm0 0" fill="#bcbec0"/><path d="m312 272h96v16h-96zm0 0" fill="#d1d3d4"/><path d="m408 264h-96c-4.417969 0-8 3.582031-8 8v80c0 4.417969 3.582031 8 8 8h96c4.417969 0 8-3.582031 8-8v-80c0-4.417969-3.582031-8-8-8zm-8 16v24h-80v-24zm-80 40h8v24h-8zm24 0h8v24h-8zm24 0h8v24h-8zm32 24h-8v-24h8zm0 0" fill="#754c29"/><path d="m152 264h-96c-4.417969 0-8 3.582031-8 8v80c0 4.417969 3.582031 8 8 8h96c4.417969 0 8-3.582031 8-8v-80c0-4.417969-3.582031-8-8-8zm-8 16v24h-80v-24zm-80 40h8v24h-8zm24 0h8v24h-8zm24 0h8v24h-8zm32 24h-8v-24h8zm0 0" fill="#754c29"/><path d="m408 120h-96c-4.417969 0-8 3.582031-8 8v80c0 4.417969 3.582031 8 8 8h96c4.417969 0 8-3.582031 8-8v-80c0-4.417969-3.582031-8-8-8zm-8 16v24h-80v-24zm-80 40h8v24h-8zm24 0h8v24h-8zm24 0h8v24h-8zm32 24h-8v-24h8zm0 0" fill="#754c29"/><path d="m280 120h-96c-4.417969 0-8 3.582031-8 8v80c0 4.417969 3.582031 8 8 8h96c4.417969 0 8-3.582031 8-8v-80c0-4.417969-3.582031-8-8-8zm-8 16v24h-80v-24zm-80 64v-24h8v24zm24 0v-24h8v24zm24 0v-24h8v24zm32 0h-8v-24h8zm0 0" fill="#754c29"/><path d="m152 120h-96c-4.417969 0-8 3.582031-8 8v80c0 4.417969 3.582031 8 8 8h96c4.417969 0 8-3.582031 8-8v-80c0-4.417969-3.582031-8-8-8zm-8 16v24h-80v-24zm-80 40h8v24h-8zm24 0h8v24h-8zm24 0h8v24h-8zm32 24h-8v-24h8zm0 0" fill="#754c29"/></svg>