<svg height="464pt" viewBox="0 -11 464 463" width="464pt" xmlns="http://www.w3.org/2000/svg"><path d="m464 272.5v48c-.027344 8.824219-7.175781 15.972656-16 16h-432c-8.824219-.027344-15.9726562-7.175781-16-16v-48zm0 0" fill="#acabb1"/><path d="m464 16.5v256h-464v-256c.0273438-8.824219 7.175781-15.972656 16-16h432c8.824219.027344 15.972656 7.175781 16 16zm0 0" fill="#78b9eb"/><path d="m312 115.21875v125.28125c0 4.417969-3.582031 8-8 8h-144c-4.417969 0-8-3.582031-8-8v-125.28125l80-58.71875zm0 0" fill="#ffc477"/><path d="m256 184.5h32v32h-32zm0 0" fill="#e6e7e8"/><path d="m184 184.5h48v64h-48zm0 0" fill="#8b5e3c"/><path d="m256 128.5c0 13.253906-10.746094 24-24 24s-24-10.746094-24-24 10.746094-24 24-24 24 10.746094 24 24zm0 0" fill="#ffd422"/><path d="m312 32.5v48.480469l-32-22.558594v-25.921875zm0 0" fill="#ffc477"/><path d="m320 400.5v32h-176v-32zm0 0" fill="#787680"/><path d="m304 400.5h-144l8-64h128zm0 0" fill="#898890"/><path d="m240 62.339844-72 52.878906-16 11.761719v-11.761719l80-58.71875zm0 0" fill="#ffb655"/><path d="m312 69.699219v11.28125l-32-22.558594v-11.28125l16 11.28125zm0 0" fill="#ffb655"/><path d="m256 184.5h16v32h-16zm0 0" fill="#d1d3d4"/><path d="m184 184.5h16v64h-16zm0 0" fill="#754c29"/><path d="m184 184.5h48v8h-48zm0 0" fill="#754c29"/><path d="m362.71875 124.179688c-.007812 5.394531-3.046875 10.328124-7.859375 12.761718-4.816406 2.433594-10.589844 1.953125-14.9375-1.242187l-27.921875-20.480469-80-58.71875-80 58.71875-27.921875 20.480469c-2.445313 1.765625-5.382813 2.714843-8.398437 2.722656-4.796876-.003906-9.285157-2.367187-12-6.320313-4.253907-6.460937-2.625-15.125 3.679687-19.601562l124.640625-88 48 33.921875 32 22.558594 26.480469 18.71875 18.160156 12.800781c3.792969 2.683594 6.054687 7.035156 6.078125 11.679688zm0 0" fill="#ff6243"/><path d="m298 352.5h-132l2-16h128zm0 0" fill="#787680"/><path d="m392 296.5h32v16h-32zm0 0" fill="#898890"/><path d="m112 424.5h240v16h-240zm0 0" fill="#57565c"/><path d="m288 224.5h-32c-4.417969 0-8-3.582031-8-8v-32c0-4.417969 3.582031-8 8-8h32c4.417969 0 8 3.582031 8 8v32c0 4.417969-3.582031 8-8 8zm-24-16h16v-16h-16zm0 0" fill="#754c29"/><path d="m357.65625 86.15625-11.3125-11.3125 24-24c1.5-1.5 3.535156-2.34375 5.65625-2.34375h16v16h-12.6875zm0 0" fill="#e6e7e8"/><path d="m408 48.5h32v16h-32zm0 0" fill="#898890"/><path d="m408 80.5h32v16h-32zm0 0" fill="#898890"/><path d="m106.34375 86.15625-13.65625-13.65625h-12.6875v-16h16c2.121094 0 4.15625.84375 5.65625 2.34375l16 16zm0 0" fill="#e6e7e8"/><path d="m32 56.5h32v16h-32zm0 0" fill="#009986"/><path d="m32 88.5h32v16h-32zm0 0" fill="#009986"/><path d="m80 192.5h48v16h-48zm0 0" fill="#e6e7e8"/><path d="m32 176.5h32v16h-32zm0 0" fill="#5aaae7"/><path d="m32 208.5h32v16h-32zm0 0" fill="#5aaae7"/><path d="m336 192.5h48v16h-48zm0 0" fill="#e6e7e8"/><g fill="#1e81ce"><path d="m400 176.5h32v16h-32zm0 0"/><path d="m400 208.5h32v16h-32zm0 0"/></g></svg>