<svg height="464pt" viewBox="-4 0 464 464" width="464pt" xmlns="http://www.w3.org/2000/svg"><path d="m456 16v336c-.027344 8.824219-7.175781 15.972656-16 16h-32v-304c-.027344-8.824219-7.175781-15.972656-16-16h-208v-32c.027344-8.824219 7.175781-15.9726562 16-16h240c8.824219.0273438 15.972656 7.175781 16 16zm0 0" fill="#a7a9ac"/><path d="m408 368v32c-.027344 8.824219-7.175781 15.972656-16 16h-32v-304c-.027344-8.824219-7.175781-15.972656-16-16h-208v-32c.027344-8.824219 7.175781-15.972656 16-16h240c8.824219.027344 15.972656 7.175781 16 16zm0 0" fill="#bcbec0"/><path d="m360 112v336c-.027344 8.824219-7.175781 15.972656-16 16h-240c-8.824219-.027344-15.972656-7.175781-16-16v-336c.027344-8.824219 7.175781-15.972656 16-16h240c8.824219.027344 15.972656 7.175781 16 16zm0 0" fill="#e6e7e8"/><path d="m328 96v80l-24-16-24 16v-80zm0 0" fill="#ff6243"/><path d="m168 168c0 13.253906-10.746094 24-24 24s-24-10.746094-24-24 10.746094-24 24-24 24 10.746094 24 24zm0 0" fill="#ffd422"/><path d="m48 280h80v96h-80zm0 0" fill="#c6c5ca"/><path d="m176 376v32h-176v-32zm0 0" fill="#898890"/><path d="m128 280h32v96h-32zm0 0" fill="#acabb1"/><path d="m16 280h32v96h-32zm0 0" fill="#acabb1"/><path d="m176 256v24h-176v-24l88-32zm0 0" fill="#898890"/><path d="m16 280h32v16h-32zm0 0" fill="#787680"/><path d="m128 280h32v16h-32zm0 0" fill="#787680"/><path d="m48 280h80v16h-80zm0 0" fill="#acabb1"/><path d="m192 152h16v16h-16zm0 0" fill="#787680"/><path d="m224 152h32v16h-32zm0 0" fill="#898890"/><path d="m192 184h64v16h-64zm0 0" fill="#787680"/><g fill="#898890"><path d="m200 248h120v16h-120zm0 0"/><path d="m200 296h120v16h-120zm0 0"/><path d="m200 344h120v16h-120zm0 0"/></g><path d="m320 410.878906c-5.382812.113282-10.707031-1.148437-15.472656-3.664062-5.351563-2.792969-11.734375-2.792969-17.085938 0-9.726562 4.894531-21.195312 4.894531-30.921875 0-2.59375-1.464844-5.542969-2.191406-8.519531-2.09375v-16c5.378906-.109375 10.699219 1.15625 15.457031 3.671875 5.34375 2.789062 11.714844 2.789062 17.0625 0 9.734375-4.886719 21.203125-4.886719 30.9375 0 2.601563 1.464843 5.558594 2.1875 8.542969 2.085937zm0 0" fill="#57565c"/></svg>