<svg height="472pt" viewBox="-3 0 471 472" width="472pt" xmlns="http://www.w3.org/2000/svg"><path d="m384.5 0h16v32h-16zm0 0" fill="#acabb1"/><path d="m64.5 0h16v32h-16zm0 0" fill="#acabb1"/><path d="m280.5 248h40v32h-40zm0 0" fill="#d1d3d4"/><path d="m280.5 312h40v32h-40zm0 0" fill="#d1d3d4"/><path d="m248.5 344h32v32h-32zm0 0" fill="#d1d3d4"/><path d="m248.5 280h32v32h-32zm0 0" fill="#d1d3d4"/><path d="m280.5 216v32h-32v-32zm0 0" fill="#d1d3d4"/><path d="m216.5 248h32v32h-32zm0 0" fill="#d1d3d4"/><path d="m216.5 312h32v32h-32zm0 0" fill="#d1d3d4"/><path d="m184.5 344h32v32h-32zm0 0" fill="#d1d3d4"/><path d="m184.5 280h32v32h-32zm0 0" fill="#d1d3d4"/><path d="m192.5 216h24v32h-32v-32zm0 0" fill="#d1d3d4"/><path d="m144.5 312h40v32h-40zm0 0" fill="#d1d3d4"/><path d="m144.5 248h40v32h-40zm0 0" fill="#d1d3d4"/><g fill="#e6e7e8"><path d="m280.5 344h40v32h-40zm0 0"/><path d="m280.5 280h40v32h-40zm0 0"/><path d="m280.5 216h40v32h-40zm0 0"/><path d="m248.5 248h32v32h-32zm0 0"/><path d="m248.5 312h32v32h-32zm0 0"/><path d="m216.5 344h32v32h-32zm0 0"/><path d="m216.5 280h32v32h-32zm0 0"/><path d="m216.5 216h32v32h-32zm0 0"/><path d="m184.5 248h32v32h-32zm0 0"/><path d="m184.5 312h32v32h-32zm0 0"/><path d="m144.5 344h40v32h-40zm0 0"/><path d="m144.5 280h40v32h-40zm0 0"/><path d="m144.5 216h40v32h-40zm0 0"/></g><path d="m128.5 56h-112c0-17.679688 25.039062-32 56-32s56 14.320312 56 32zm0 0" fill="#787680"/><path d="m448.5 56h-112c0-17.679688 25.039062-32 56-32s56 14.320312 56 32zm0 0" fill="#787680"/><path d="m.5 56h144v416h-144zm0 0" fill="#acabb1"/><path d="m320.5 56h144v416h-144zm0 0" fill="#acabb1"/><path d="m320.5 376v96h-176v-96zm0 0" fill="#898890"/><path d="m192.5 416h80v56h-80zm0 0" fill="#c2dff6"/><path d="m32.5 344h80v32h-80zm0 0" fill="#c2dff6"/><path d="m32.5 280h80v32h-80zm0 0" fill="#c2dff6"/><path d="m32.5 216h80v32h-80zm0 0" fill="#c2dff6"/><path d="m32.5 152h80v32h-80zm0 0" fill="#c2dff6"/><path d="m32.5 88h80v32h-80zm0 0" fill="#c2dff6"/><path d="m352.5 344h80v32h-80zm0 0" fill="#c2dff6"/><path d="m352.5 280h80v32h-80zm0 0" fill="#c2dff6"/><path d="m352.5 216h80v32h-80zm0 0" fill="#c2dff6"/><path d="m352.5 152h80v32h-80zm0 0" fill="#c2dff6"/><path d="m352.5 88h80v32h-80zm0 0" fill="#c2dff6"/><path d="m288.5 152v32h-112v-32zm0 0" fill="#ffb655"/><path d="m352.5 88h16v32h-16zm0 0" fill="#adc7db"/><path d="m352.5 152h16v32h-16zm0 0" fill="#adc7db"/><path d="m352.5 216h16v32h-16zm0 0" fill="#adc7db"/><path d="m352.5 280h16v32h-16zm0 0" fill="#adc7db"/><path d="m352.5 344h16v32h-16zm0 0" fill="#adc7db"/><path d="m192.5 416h16v56h-16zm0 0" fill="#adc7db"/><path d="m32.5 88h16v32h-16zm0 0" fill="#adc7db"/><path d="m32.5 152h16v32h-16zm0 0" fill="#adc7db"/><path d="m32.5 216h16v32h-16zm0 0" fill="#adc7db"/><path d="m32.5 280h16v32h-16zm0 0" fill="#adc7db"/><path d="m32.5 344h16v32h-16zm0 0" fill="#adc7db"/><path d="m168.5 408h128v16h-128zm0 0" fill="#787680"/><path d="m184.5 184h16v32h-16zm0 0" fill="#787680"/><path d="m264.5 184h16v32h-16zm0 0" fill="#787680"/></svg>