<svg height="472pt" viewBox="-3 0 471 472" width="472pt" xmlns="http://www.w3.org/2000/svg"><path d="m24.5 312h112v160h-112zm0 0" fill="#a97c50"/><path d="m136.5 200h192v272h-192zm0 0" fill="#8b5e3c"/><path d="m328.5 312h112v160h-112zm0 0" fill="#a97c50"/><path d="m328.5 88v89.601562l-40-37.363281v-52.238281zm0 0" fill="#754c29"/><path d="m264.5 440v32h-64v-32c0-17.671875 14.328125-32 32-32s32 14.328125 32 32zm0 0" fill="#898890"/><path d="m254.261719 416.558594c-1.894531-.390625-3.828125-.578125-5.761719-.558594-17.671875 0-32 14.328125-32 32v24h-16v-32c.007812-12.71875 7.550781-24.226562 19.210938-29.308594 11.660156-5.085937 25.222656-2.78125 34.550781 5.867188zm0 0" fill="#787680"/><path d="m352.5 408h64v32h-64zm0 0" fill="#e6e7e8"/><path d="m352.5 344h64v32h-64zm0 0" fill="#e6e7e8"/><path d="m248.5 336h48v48h-48zm0 0" fill="#e6e7e8"/><path d="m248.5 248h48v48h-48zm0 0" fill="#e6e7e8"/><path d="m168.5 336h48v48h-48zm0 0" fill="#e6e7e8"/><path d="m168.5 248h48v48h-48zm0 0" fill="#e6e7e8"/><path d="m48.5 408h64v32h-64zm0 0" fill="#e6e7e8"/><path d="m48.5 344h64v32h-64zm0 0" fill="#e6e7e8"/><path d="m328.5 290.398438 56-50.398438 80 72h-160zm0 0" fill="#cc7400"/><path d="m136.5 290.398438 24 21.601562h-160l80-72zm0 0" fill="#cc7400"/><path d="m328.5 200h-216l120-112 56 52.238281 40 37.363281 24 22.398438zm0 0" fill="#cc7400"/><path d="m136.5 200h192v16h-192zm0 0" fill="#754c29"/><path d="m24.5 312h112v16h-112zm0 0" fill="#8b5e3c"/><path d="m328.5 312h112v16h-112zm0 0" fill="#8b5e3c"/><g fill="#d1d3d4"><path d="m168.5 336h16v48h-16zm0 0"/><path d="m168.5 248h16v48h-16zm0 0"/><path d="m248.5 248h16v48h-16zm0 0"/><path d="m248.5 336h16v48h-16zm0 0"/><path d="m168.5 248h48v8h-48zm0 0"/><path d="m248.5 248h48v8h-48zm0 0"/><path d="m168.5 336h48v8h-48zm0 0"/><path d="m248.5 336h48v8h-48zm0 0"/><path d="m48.5 344h16v32h-16zm0 0"/><path d="m48.5 408h16v32h-16zm0 0"/><path d="m48.5 344h64v8h-64zm0 0"/><path d="m48.5 408h64v8h-64zm0 0"/><path d="m352.5 344h16v32h-16zm0 0"/><path d="m352.5 408h16v32h-16zm0 0"/><path d="m352.5 344h64v8h-64zm0 0"/><path d="m352.5 408h64v8h-64zm0 0"/></g><path d="m136.5 312h16v160h-16zm0 0" fill="#754c29"/><path d="m312.5 312h16v160h-16zm0 0" fill="#754c29"/><path d="m336.5 64h-16v-16c0-13.253906 10.746094-24 24-24h16c4.417969 0 8-3.582031 8-8v-16h16v16c0 13.253906-10.746094 24-24 24h-16c-4.417969 0-8 3.582031-8 8zm0 0" fill="#c6c5ca"/><path d="m296.5 64h-16v-32c0-13.253906 10.746094-24 24-24h16c4.417969 0 8-3.582031 8-8h16c0 13.253906-10.746094 24-24 24h-16c-4.417969 0-8 3.582031-8 8zm0 0" fill="#c6c5ca"/></svg>