<svg height="464pt" viewBox="0 0 464 464" width="464pt" xmlns="http://www.w3.org/2000/svg"><path d="m464 72v80c-39.765625 0-72 32.234375-72 72h-320c0-39.765625-32.234375-72-72-72v-80c39.765625 0 72-32.234375 72-72h320c0 39.765625 32.234375 72 72 72zm0 0" fill="#00ccb3"/><path d="m432 224h-400c-17.671875 0-32-14.328125-32-32v128c0 17.671875 14.328125 32 32 32h400c17.671875 0 32-14.328125 32-32v-128c0 17.671875-14.328125 32-32 32zm0 0" fill="#009986"/><path d="m312 330.71875v125.28125c0 4.417969-3.582031 8-8 8h-144c-4.417969 0-8-3.582031-8-8v-125.28125l80-58.71875zm0 0" fill="#ffc477"/><path d="m256 400h32v32h-32zm0 0" fill="#e6e7e8"/><path d="m184 400h48v64h-48zm0 0" fill="#8b5e3c"/><path d="m256 344c0 13.253906-10.746094 24-24 24s-24-10.746094-24-24 10.746094-24 24-24 24 10.746094 24 24zm0 0" fill="#ffd422"/><path d="m312 248v48.480469l-32-22.558594v-25.921875zm0 0" fill="#ffc477"/><path d="m312 285.199219v11.28125l-32-22.558594v-11.28125l16 11.28125zm0 0" fill="#ffb655"/><path d="m288 112c0 30.929688-25.070312 56-56 56s-56-25.070312-56-56 25.070312-56 56-56 56 25.070312 56 56zm0 0" fill="#ffd422"/><path d="m72 224h-40c-17.671875 0-32-14.328125-32-32v-40c39.765625 0 72 32.234375 72 72zm0 0" fill="#00b39d"/><path d="m32 0h40c0 39.765625-32.234375 72-72 72v-40c0-17.671875 14.328125-32 32-32zm0 0" fill="#00b39d"/><path d="m464 176v16c0 17.671875-14.328125 32-32 32h-40c0-39.765625 32.234375-72 72-72zm0 0" fill="#00b39d"/><path d="m464 32v40c-39.765625 0-72-32.234375-72-72h40c17.671875 0 32 14.328125 32 32zm0 0" fill="#00b39d"/><path d="m240 277.839844-72 52.878906-16 11.761719v-11.761719l80-58.71875zm0 0" fill="#ffb655"/><path d="m256 400h16v32h-16zm0 0" fill="#d1d3d4"/><path d="m362.71875 339.679688c-.015625 2.816406-.847656 5.566406-2.398438 7.921874-1.007812 1.5-2.316406 2.78125-3.839843 3.757813-4.992188 3.472656-11.636719 3.410156-16.558594-.160156l-27.921875-20.480469-80-58.71875-80 58.71875-27.921875 20.480469c-2.445313 1.765625-5.382813 2.714843-8.398437 2.722656-3.527344-.015625-6.933594-1.292969-9.601563-3.601563-.898437-.8125-1.707031-1.722656-2.398437-2.71875-4.253907-6.460937-2.625-15.125 3.679687-19.601562l124.640625-88 48 33.921875 32 22.558594 44.640625 31.519531c3.792969 2.683594 6.054687 7.035156 6.078125 11.679688zm0 0" fill="#ff6243"/><path d="m184 400h16v64h-16zm0 0" fill="#754c29"/><path d="m184 400h48v8h-48zm0 0" fill="#754c29"/><path d="m328 104h16v16h-16zm0 0" fill="#00b39d"/><path d="m120 104h16v16h-16zm0 0" fill="#00b39d"/><g fill="#008070"><path d="m24 248h136v16h-136zm0 0"/><path d="m24 280h96v16h-96zm0 0"/><path d="m24 312h64v16h-64zm0 0"/><path d="m336 248h104v16h-104zm0 0"/><path d="m344 280h96v16h-96zm0 0"/><path d="m376 312h64v16h-64zm0 0"/></g><path d="m288 440h-32c-4.417969 0-8-3.582031-8-8v-32c0-4.417969 3.582031-8 8-8h32c4.417969 0 8 3.582031 8 8v32c0 4.417969-3.582031 8-8 8zm-24-16h16v-16h-16zm0 0" fill="#754c29"/></svg>