<svg height="464pt" viewBox="0 0 464 464" width="464pt" xmlns="http://www.w3.org/2000/svg"><path d="m16 104h432c8.835938 0 16 7.164062 16 16v256c0 8.835938-7.164062 16-16 16h-432c-8.835938 0-16-7.164062-16-16v-256c0-8.835938 7.164062-16 16-16zm0 0" fill="#e6e7e8"/><path d="m392 392v72l-32-24-32 24v-77.519531c3.441406 5.121093 5.359375 13.597656 10.640625 15.28125 6.238281 2 14.480469-6.882813 21.359375-6.882813s15.121094 8.882813 21.359375 6.882813c5.28125-1.683594 7.199219-10.160157 10.640625-15.28125zm0 0" fill="#5aaae7"/><path d="m429.121094 336c0 6.878906-11.121094 12-13.121094 18.238281-2.078125 6.402344 3.839844 17.042969-.078125 22.402344-3.921875 5.359375-15.921875 3.039063-21.28125 7.039063-1.019531.792968-1.90625 1.738281-2.640625 2.800781-3.441406 5.121093-5.359375 13.597656-10.640625 15.28125-6.238281 2-14.480469-6.882813-21.359375-6.882813s-15.121094 8.882813-21.359375 6.882813c-5.28125-1.683594-7.199219-10.160157-10.640625-15.28125-.734375-1.0625-1.621094-2.007813-2.640625-2.800781-5.359375-4-17.359375-1.601563-21.28125-7.039063-3.917969-5.441406 2-16-.078125-22.402344-2-6.238281-13.121094-11.359375-13.121094-18.238281s11.121094-12 13.121094-18.238281c2.078125-6.402344-3.839844-17.042969.078125-22.402344 3.921875-5.359375 15.921875-3.039063 21.28125-7.039063 5.441406-3.839843 6.800781-16 13.28125-18.082031 6.238281-2 14.480469 6.882813 21.359375 6.882813s15.121094-8.882813 21.359375-6.882813c6.480469 2.082031 7.839844 14.242188 13.28125 18.082031 5.359375 4 17.359375 1.601563 21.28125 7.039063 3.917969 5.441406-2 16 .078125 22.402344 2 6.238281 13.121094 11.359375 13.121094 18.238281zm0 0" fill="#ffd422"/><path d="m240 90.71875v125.28125c0 4.417969-3.582031 8-8 8h-144c-4.417969 0-8-3.582031-8-8v-125.28125l80-58.71875zm0 0" fill="#ffc477"/><path d="m184 160h32v32h-32zm0 0" fill="#e6e7e8"/><path d="m112 160h48v64h-48zm0 0" fill="#8b5e3c"/><path d="m240 8v48.480469l-32-22.558594v-25.921875zm0 0" fill="#ffc477"/><path d="m184 104c0 13.253906-10.746094 24-24 24s-24-10.746094-24-24 10.746094-24 24-24 24 10.746094 24 24zm0 0" fill="#ffd422"/><path d="m392 336c0 17.671875-14.328125 32-32 32s-32-14.328125-32-32 14.328125-32 32-32 32 14.328125 32 32zm0 0" fill="#ff6243"/><path d="m168 37.839844-72 52.878906-16 11.761719v-11.761719l80-58.71875zm0 0" fill="#ffb655"/><path d="m240 45.199219v11.28125l-32-22.558594v-11.28125l16 11.28125zm0 0" fill="#ffb655"/><path d="m184 160h16v32h-16zm0 0" fill="#d1d3d4"/><path d="m112 160h16v64h-16zm0 0" fill="#754c29"/><path d="m112 160h48v8h-48zm0 0" fill="#754c29"/><path d="m290.71875 99.679688c.023438 1.386718-.191406 2.765624-.640625 4.082031-.367187 1.367187-.960937 2.664062-1.757813 3.839843-2.183593 3.238282-5.589843 5.449219-9.4375 6.128907-3.84375.675781-7.800781-.234375-10.960937-2.53125l-27.921875-20.480469-80-58.71875-80 58.71875-27.921875 20.480469c-2.445313 1.765625-5.382813 2.714843-8.398437 2.722656-4.796876-.003906-9.285157-2.367187-12-6.320313-1.164063-1.792968-1.925782-3.808593-2.238282-5.921874-.757812-5.308594 1.527344-10.597657 5.917969-13.679688l124.640625-88 48 33.921875 32 22.558594 44.640625 31.519531c3.792969 2.683594 6.054687 7.035156 6.078125 11.679688zm0 0" fill="#ff6243"/><path d="m216 200h-32c-4.417969 0-8-3.582031-8-8v-32c0-4.417969 3.582031-8 8-8h32c4.417969 0 8 3.582031 8 8v32c0 4.417969-3.582031 8-8 8zm-24-16h16v-16h-16zm0 0" fill="#754c29"/><path d="m440 200h-16v-48c0-4.417969-3.582031-8-8-8h-48v-16h48c13.253906 0 24 10.746094 24 24zm0 0" fill="#d1d3d4"/><path d="m96 368h-48c-13.253906 0-24-10.746094-24-24v-48h16v48c0 4.417969 3.582031 8 8 8h48zm0 0" fill="#d1d3d4"/><g fill="#acabb1"><path d="m96 264h128v16h-128zm0 0"/><path d="m80 296h160v16h-160zm0 0"/><path d="m312 184h80v16h-80zm0 0"/></g><path d="m280 184h16v16h-16zm0 0" fill="#787680"/><path d="m280 216h112v16h-112zm0 0" fill="#acabb1"/></svg>