<svg height="464pt" viewBox="-9 0 464 464" width="464pt" xmlns="http://www.w3.org/2000/svg"><path d="m32 0h288c17.671875 0 32 14.328125 32 32v400c0 17.671875-14.328125 32-32 32h-288c-17.671875 0-32-14.328125-32-32v-400c0-17.671875 14.328125-32 32-32zm0 0" fill="#e6e7e8"/><path d="m445.839844 87.121094-16 27.757812-27.679688-16 16-27.757812zm0 0" fill="#1a6fb0"/><path d="m400 134.558594 27.679688 16-75.679688 131.121094-36.320312 62.878906-55.359376-32 91.679688-158.71875 20.320312-35.28125zm0 0" fill="#1e81ce"/><path d="m402.160156 98.878906 27.679688 16 6.960937 4c1.835938 1.070313 3.175781 2.828125 3.714844 4.882813.539063 2.058593.238281 4.242187-.835937 6.078125l-12 20.71875-55.359376-32 12-20.71875c1.035157-1.847656 2.773438-3.203125 4.820313-3.761719 2.042969-.554687 4.226563-.265625 6.058594.800781zm0 0" fill="#3d9ae2"/><path d="m80 304h64v56h-64zm0 0" fill="#ffc477"/><path d="m160 304h-96l48-40zm0 0" fill="#ff6243"/><path d="m296 0v80l-24-24-24 24v-80zm0 0" fill="#ff6243"/><path d="m56 64h32v16h-32zm0 0" fill="#787680"/><path d="m104 64h80v16h-80zm0 0" fill="#898890"/><path d="m56 96h128v16h-128zm0 0" fill="#787680"/><path d="m56 160h144v16h-144zm0 0" fill="#787680"/><g fill="#acabb1"><path d="m216 160h32v16h-32zm0 0"/><path d="m264 160h32v16h-32zm0 0"/><path d="m56 192h240v16h-240zm0 0"/></g><path d="m56 224h96v16h-96zm0 0" fill="#787680"/><path d="m256 392c-2.855469-.003906-5.496094-1.527344-6.921875-4.003906-1.425781-2.472656-1.425781-5.523438 0-7.996094l16-27.710938c1.421875-2.496093 4.066406-4.039062 6.9375-4.046874 2.871094-.007813 5.527344 1.527343 6.957031 4.015624 1.429688 2.488282 1.414063 5.554688-.035156 8.03125l-16 27.710938c-1.433594 2.476562-4.078125 4.003906-6.9375 4zm0 0" fill="#57565c"/><path d="m361.074219 186.011719 31.996093-55.429688 13.859376 8-31.996094 55.429688zm0 0" fill="#c6c5ca"/><path d="m232 402.878906c-5.382812.113282-10.707031-1.148437-15.472656-3.664062-5.351563-2.789063-11.726563-2.789063-17.078125 0-9.730469 4.898437-21.199219 4.898437-30.929688 0-2.59375-1.464844-5.542969-2.1875-8.519531-2.09375v-16c5.378906-.113282 10.695312 1.148437 15.449219 3.671875 5.347656 2.789062 11.722656 2.789062 17.070312 0 9.734375-4.886719 21.203125-4.886719 30.9375 0 2.601563 1.464843 5.558594 2.1875 8.542969 2.085937zm0 0" fill="#57565c"/><path d="m315.679688 344.558594-36.71875 15.761718-13.921876-8-4.71875-39.761718zm0 0" fill="#3d9ae2"/><path d="m368.285156 125.515625 8-13.855469 55.421875 32.003906-8 13.855469zm0 0" fill="#898890"/></svg>