<svg height="462pt" viewBox="-21 0 462 462.4391" width="462pt" xmlns="http://www.w3.org/2000/svg"><path d="m160.21875 72h128v88h-128zm0 0" fill="#ffc477"/><path d="m208.21875 112h32v48h-32zm0 0" fill="#8b5e3c"/><path d="m312.21875 72h-176l88-72zm0 0" fill="#ff6243"/><path d="m165.339844 211.679688-90.558594 90.558593-45.203125-45.277343 90.480469-90.480469zm0 0" fill="#3d9ae2"/><path d="m419.898438 285.28125-45.277344 45.199219-11.363282-11.28125-79.117187-79.199219-11.359375-11.28125 45.277344-45.277344zm0 0" fill="#3d9ae2"/><path d="m80.457031 296.554688 79.203125-79.199219 22.640625 22.636719-79.203125 79.203124zm0 0" fill="#e6e7e8"/><path d="m261.507812 262.613281 22.632813-22.609375 79.136719 79.21875-22.632813 22.609375zm0 0" fill="#e6e7e8"/><path d="m261.5 262.640625 79.199219 79.199219-11.757813 11.761718c-6.21875-3.84375-14.269531-2.84375-19.363281 2.398438-3.019531 2.976562-4.71875 7.039062-4.71875 11.28125 0 4.238281 1.699219 8.300781 4.71875 11.277344-4.582031-4.554688-11.460937-5.90625-17.429687-3.421875s-9.855469 8.316406-9.847657 14.785156c-.019531 4.226563 1.652344 8.285156 4.640625 11.277344-6.253906-6.25-16.390625-6.25-22.640625 0-6.253906 6.253906-6.253906 16.390625 0 22.640625-5.6875-5.746094-14.769531-6.347656-21.164062-1.398438-6.394531 4.949219-8.09375 13.890625-3.957031 20.839844l-6 6c-6.253907 6.25-16.386719 6.25-22.640626 0-6.25-6.253906-6.25-16.390625 0-22.640625-2.984374 3.007813-7.042968 4.707031-11.28125 4.71875-4.257812-.023437-8.335937-1.71875-11.359374-4.71875-2.996094-2.988281-4.679688-7.046875-4.679688-11.28125 0-4.230469 1.683594-8.289063 4.679688-11.28125-6.332032 5.71875-16.035157 5.460937-22.054688-.578125-6.023438-6.042969-6.242188-15.75-.503906-22.058594-3.03125 2.976563-7.109375 4.644532-11.359375 4.636719-4.230469.019531-8.289063-1.648437-11.28125-4.636719-3.003907-3.003906-4.691407-7.074218-4.691407-11.320312s1.6875-8.320313 4.691407-11.320313l22.640625-22.640625 33.199218-33.28125c9.65625 1.105469 19.285157-2.25 26.160157-9.117187l33.921875 33.917969c6.25 6.253906 16.386718 6.253906 22.636718 0 6.253907-6.25 6.253907-16.386719 0-22.640626l-38.636718-38.640624zm0 0" fill="#ffc477"/><path d="m275.578125 435.199219c3.019531 2.976562 4.722656 7.039062 4.722656 11.28125 0 4.238281-1.703125 8.304687-4.722656 11.28125-2.988281 2.992187-7.046875 4.675781-11.277344 4.675781-4.234375 0-8.292969-1.683594-11.28125-4.675781l-11.359375-11.28125c-.960937-.957031-1.796875-2.03125-2.480468-3.199219-1.417969-2.457031-2.164063-5.246094-2.160157-8.082031-.003906-6.464844 3.882813-12.296875 9.847657-14.78125 5.96875-2.488281 12.847656-1.136719 17.433593 3.421875zm0 0" fill="#ffdaaa"/><path d="m298.21875 412.558594c3.011719 2.984375 4.710938 7.042968 4.722656 11.28125-.027344 4.257812-1.722656 8.335937-4.722656 11.359375-3 3.003906-7.074219 4.695312-11.320312 4.695312-4.246094 0-8.316407-1.691406-11.320313-4.695312l-11.277344-11.359375c-6.253906-6.25-6.253906-16.386719 0-22.640625 6.25-6.25 16.386719-6.25 22.640625 0zm0 0" fill="#ffdaaa"/><path d="m320.859375 389.921875c6.253906 6.25 6.253906 16.386719 0 22.636719-6.25 6.253906-16.386719 6.253906-22.640625 0l-11.277344-11.359375c-2.988281-2.992188-4.660156-7.050781-4.640625-11.277344-.007812-6.46875 3.878907-12.300781 9.847657-14.785156s12.847656-1.132813 17.429687 3.421875zm0 0" fill="#ffdaaa"/><path d="m343.5 367.28125c6.25 6.25 6.25 16.386719 0 22.640625-6.253906 6.25-16.386719 6.25-22.640625 0l-11.28125-11.363281c-3.019531-2.976563-4.71875-7.039063-4.71875-11.277344 0-4.242188 1.699219-8.304688 4.71875-11.28125 5.09375-5.242188 13.144531-6.242188 19.363281-2.398438 1.226563.597657 2.335938 1.410157 3.277344 2.398438zm0 0" fill="#ffdaaa"/><path d="m198.539062 302.878906-33.199218 33.28125-22.640625 22.640625-39.601563-39.601562 79.203125-79.199219h33.917969l26.402344 26.398438 38.636718 38.640624c6.253907 6.253907 6.253907 16.390626 0 22.640626-6.25 6.253906-16.386718 6.253906-22.636718 0l-33.921875-33.917969c-6.875 6.867187-16.503907 10.222656-26.160157 9.117187zm0 0" fill="#ffdaaa"/><path d="m160.21875 72h128v16h-128zm0 0" fill="#ffb655"/><g fill="#ff9811"><path d="m72.21875 24h16v48h-16zm0 0"/><path d="m56.21875 40h48v16h-48zm0 0"/><path d="m376.21875 120h16v48h-16zm0 0"/><path d="m360.21875 136h48v16h-48zm0 0"/><path d="m328.21875 0h16v48h-16zm0 0"/><path d="m312.21875 16h48v16h-48zm0 0"/><path d="m.21875 136h48v16h-48zm0 0"/><path d="m16.21875 120h16v48h-16zm0 0"/></g></svg>