<svg height="468pt" viewBox="-1 0 468 468.56004" width="468pt" xmlns="http://www.w3.org/2000/svg"><path d="m336.28125 170.71875v117.28125c0 4.417969-3.582031 8-8 8h-144c-4.417969 0-8-3.582031-8-8v-117.28125l80-58.71875zm0 0" fill="#ffc477"/><path d="m264.28125 117.839844-72 52.878906-16 11.761719v-11.761719l80-58.71875zm0 0" fill="#ffc477"/><path d="m280.28125 232h32v32h-32zm0 0" fill="#e6e7e8"/><path d="m208.28125 232h48v64h-48zm0 0" fill="#8b5e3c"/><path d="m272.28125 168c0 8.835938-7.164062 16-16 16s-16-7.164062-16-16 7.164062-16 16-16 16 7.164062 16 16zm0 0" fill="#ffd422"/><path d="m264.28125 117.839844-72 52.878906-16 11.761719v-11.761719l80-58.71875zm0 0" fill="#ffb655"/><path d="m280.28125 232h16v32h-16zm0 0" fill="#d1d3d4"/><path d="m336.28125 170.71875-80-58.71875-80 58.71875-27.921875 20.480469c-2.445313 1.765625-5.382813 2.714843-8.398437 2.722656-4.796876-.003906-9.285157-2.367187-12-6.320313-4.253907-6.460937-2.628907-15.125 3.679687-19.601562l90.640625-64h10c13.253906 0 24-10.746094 24-24l32 32c5.667969 5.617188 13.871094 7.835938 21.597656 5.839844l71.042969 50.160156c3.789063 2.683594 6.054687 7.035156 6.078125 11.679688-.007812 5.394531-3.046875 10.328124-7.863281 12.761718-4.816407 2.433594-10.589844 1.953125-14.9375-1.242187zm0 0" fill="#ff6243"/><path d="m467.238281 348.320312-43.757812 120.238282-45.121094-16.398438 5.441406-15.039062 32.878907-90.242188 5.441406-15.039062zm0 0" fill="#1e81ce"/><path d="m64.28125 104v24h-64v-128h64zm0 0" fill="#787680"/><path d="m228.839844 363.679688c.121094-1.347657.445312-2.667969.960937-3.917969 2.929688-8.066407 9.945313-13.957031 18.398438-15.441407l90.082031-15.921874 18.640625-3.277344 59.757813 21.757812-32.878907 90.242188-14.960937-5.441406-48.558594 16.320312-22.5625-8.160156-141.757812-51.601563c-11.082032-3.769531-18.019532-14.773437-16.640626-26.398437 1.03125-7.160156 5.234376-13.472656 11.445313-17.183594s13.761719-4.421875 20.554687-1.9375zm0 0" fill="#ffdaaa"/><path d="m256.28125 80c0 13.253906-10.746094 24-24 24h-56c0 17.679688-24 32-48 32s-48-14.320312-48-32h-16v-80h16l56-24h84.078125c12.753906-.015625 24.992187 5.050781 34 14.078125l65.039063 65.042969c7.90625 7.582031 9.5625 19.601562 4 29.039062-4.222657 6.457032-11.402344 10.363282-19.117188 10.398438-5.992188.023437-11.75-2.335938-16-6.558594zm0 0" fill="#ffc477"/><path d="m256.28125 80 12.480469 12.480469c-.96875 1.644531-2.152344 3.152343-3.523438 4.480469-4.492187 4.507812-10.59375 7.039062-16.957031 7.039062h-16c13.253906 0 24-10.746094 24-24zm0 0" fill="#ff5023"/><path d="m64.28125 24h16v80h-16zm0 0" fill="#ffc477"/><g fill="#754c29"><path d="m208.28125 232h16v64h-16zm0 0"/><path d="m208.28125 232h48v8h-48zm0 0"/><path d="m312.28125 272h-32c-4.417969 0-8-3.582031-8-8v-32c0-4.417969 3.582031-8 8-8h32c4.417969 0 8 3.582031 8 8v32c0 4.417969-3.582031 8-8 8zm-24-16h16v-16h-16zm0 0"/></g><path d="m128.28125 135.425781c.023438-4.007812 3.007812-7.378906 6.984375-7.890625 17.382813-2.277344 32.742187-12.640625 33.015625-23.253906-.0625-4.492188 3.507812-8.1875 8-8.28125h56c8.523438-.007812 15.550781-6.6875 16-15.199219-.019531-4.515625-1.847656-8.832031-5.074219-11.988281-3.226562-3.160156-7.582031-4.890625-12.09375-4.8125h-78.832031c-4.417969 0-8-3.582031-8-8s3.582031-8 8-8h78.398438c17.035156.109375 31.355468 12.8125 33.496093 29.710938.761719 10.464843-3.667969 20.632812-11.847656 27.199218-6.136719 4.753906-13.71875 7.253906-21.480469 7.089844h-47.734375c-5.007812 16.800781-25.296875 28.679688-45.9375 31.40625-2.269531.257812-4.539062-.46875-6.238281-1.992188-1.699219-1.527343-2.667969-3.707031-2.65625-5.988281zm0 0" fill="#ffb655"/><path d="m252.375 400c-15.519531-.042969-28.792969-11.171875-31.542969-26.449219-.648437-3.691406-.621093-7.46875.078125-11.152343.257813-1.832032.722656-3.628907 1.378906-5.359376 3.921876-10.738281 13.261719-18.578124 24.519532-20.582031l108.71875-19.199219c1.382812-.253906 2.804687-.132812 4.121094.359376l20.496093 7.460937c1.996094.722656 3.625 2.210937 4.527344 4.132813.898437 1.925781.996094 4.128906.273437 6.125-1.503906 4.15625-6.09375 6.304687-10.25 4.800781l-18.488281-6.730469-106.207031 18.730469c-5.707031.933593-10.496094 4.808593-12.609375 10.191406-.285156.699219-.488281 1.425781-.613281 2.167969-.03125.269531-.078125.535156-.136719.800781-.359375 1.820313-.371094 3.691406-.039063 5.519531 1.617188 8.644532 9.867188 14.394532 18.535157 12.917969l82.183593-14.46875c4.347657-.765625 8.492188 2.132813 9.265626 6.476563.761718 4.351562-2.140626 8.496093-6.488282 9.265624l-82.21875 14.503907c-1.816406.320312-3.65625.480469-5.503906.488281zm0 0" fill="#ffc477"/></svg>