<svg height="464pt" viewBox="-27 0 464 464.00003" width="464pt" xmlns="http://www.w3.org/2000/svg"><path d="m210.6875 330.71875v125.28125c0 4.417969-3.582031 8-8 8h-144c-4.417969 0-8-3.582031-8-8v-125.28125l80-58.71875zm0 0" fill="#ffc477"/><path d="m394.6875 344v16c0 4.417969-3.582031 8-8 8h-80c-4.417969 0-8-3.582031-8-8v-16c0-4.417969 3.582031-8 8-8h80c4.417969 0 8 3.582031 8 8zm0 0" fill="#ffa733"/><path d="m394.6875 408v16c0 4.417969-3.582031 8-8 8h-80c-4.417969 0-8-3.582031-8-8v-16c0-4.417969 3.582031-8 8-8h80c4.417969 0 8 3.582031 8 8zm0 0" fill="#ffa733"/><path d="m306.6875 368h72c4.417969 0 8 3.582031 8 8v16c0 4.417969-3.582031 8-8 8h-80c-4.417969 0-8-3.582031-8-8v-16c0-4.417969 3.582031-8 8-8zm0 0" fill="#ffb655"/><path d="m306.6875 432h72c4.417969 0 8 3.582031 8 8v16c0 4.417969-3.582031 8-8 8h-80c-4.417969 0-8-3.582031-8-8v-16c0-4.417969 3.582031-8 8-8zm0 0" fill="#ffb655"/><path d="m154.6875 400h32v32h-32zm0 0" fill="#e6e7e8"/><path d="m82.6875 400h48v64h-48zm0 0" fill="#8b5e3c"/><path d="m154.6875 344c0 13.253906-10.746094 24-24 24s-24-10.746094-24-24 10.746094-24 24-24 24 10.746094 24 24zm0 0" fill="#ffd422"/><path d="m210.6875 248v48.480469l-32-22.558594v-25.921875zm0 0" fill="#ffc477"/><path d="m410.6875 0v128h-64v-128zm0 0" fill="#3d9ae2"/><path d="m210.6875 152c0 35.347656-28.65625 64-64 64-35.347656 0-64-28.652344-64-64-.035156-8.730469 1.761719-17.371094 5.277344-25.359375 1.632812-3.859375 3.671875-7.535156 6.082031-10.960937 11.597656-16.910157 30.621094-27.210938 51.121094-27.679688h1.519531c2.699219 0 5.398438.160156 8.078125.480469 3.496094 9.34375 12.425781 15.53125 22.402344 15.519531h11.839843c13.800782 12.132812 21.699219 29.625 21.679688 48zm0 0" fill="#ffd422"/><path d="m154.765625 88.480469c-2.679687-.320313-5.378906-.480469-8.078125-.480469h-1.519531c-20.5.46875-39.523438 10.769531-51.121094 27.679688-3.25-1.804688-6-4.386719-8-7.519532-5.585937-9.417968-3.964844-21.441406 3.917969-29.039062l65.121094-65.042969c8.980468-9.023437 21.191406-14.09375 33.921874-14.078125h84.160157l56 24h17.519531v80h-17.519531c0 17.679688-24 32-48 32s-48-14.320312-48-32h-56c-9.976563.011719-18.90625-6.175781-22.402344-15.519531zm0 0" fill="#ffdaaa"/><path d="m138.6875 277.839844-72 52.878906-16 11.761719v-11.761719l80-58.71875zm0 0" fill="#ffb655"/><path d="m210.6875 285.199219v11.28125l-32-22.558594v-11.28125l16 11.28125zm0 0" fill="#ffb655"/><path d="m154.6875 400h16v32h-16zm0 0" fill="#d1d3d4"/><path d="m82.6875 400h16v64h-16zm0 0" fill="#754c29"/><path d="m82.6875 400h48v8h-48zm0 0" fill="#754c29"/><path d="m261.40625 339.679688c-.007812 5.394531-3.046875 10.328124-7.863281 12.761718-4.8125 2.433594-10.589844 1.953125-14.9375-1.242187l-27.917969-20.480469-80-58.71875-80 58.71875-27.921875 20.480469c-2.445313 1.765625-5.382813 2.714843-8.398437 2.722656-4.796876-.003906-9.285157-2.367187-12-6.320313-4.253907-6.460937-2.628907-15.125 3.679687-19.601562l124.640625-88 48 33.921875 32 22.558594 44.640625 31.519531c3.789063 2.683594 6.054687 7.035156 6.078125 11.679688zm0 0" fill="#ff6243"/><path d="m186.6875 440h-32c-4.417969 0-8-3.582031-8-8v-32c0-4.417969 3.582031-8 8-8h32c4.417969 0 8 3.582031 8 8v32c0 4.417969-3.582031 8-8 8zm-24-16h16v-16h-16zm0 0" fill="#754c29"/><path d="m154.6875 144h-16c-4.417969 0-8-3.582031-8-8s3.582031-8 8-8h16c4.417969 0 8 3.582031 8 8h16c0-13.253906-10.746094-24-24-24v-8h-16v8c-13.253906 0-24 10.746094-24 24s10.746094 24 24 24h16c4.417969 0 8 3.582031 8 8s-3.582031 8-8 8h-16c-4.417969 0-8-3.582031-8-8h-16c0 13.253906 10.746094 24 24 24v8h16v-8c13.253906 0 24-10.746094 24-24s-10.746094-24-24-24zm0 0" fill="#ff6243"/><path d="m272.238281 143.40625c-20.640625-2.726562-40.925781-14.621094-45.933593-31.40625h-48.53125c-6 .105469-11.914063-1.457031-17.078126-4.511719-10.371093-6.21875-16.359374-17.746093-15.480468-29.808593 2.15625-16.875 16.460937-29.558594 33.472656-29.679688h78.398438c4.417968 0 8 3.582031 8 8s-3.582032 8-8 8h-78.792969c-4.507813-.074219-8.859375 1.660156-12.082031 4.816406-3.222657 3.15625-5.042969 7.472656-5.058594 11.984375.425781 8.523438 7.464844 15.210938 16 15.199219h56c4.492187.09375 8.066406 3.796875 8 8.289062.269531 10.597657 15.628906 20.96875 33.015625 23.246094 3.972656.511719 6.960937 3.882813 6.984375 7.890625.007812 2.285157-.960938 4.46875-2.664063 5.992188-1.703125 1.527343-3.976562 2.25-6.25 1.988281zm0 0" fill="#ffc477"/></svg>