<svg height="471pt" viewBox="-28 1 471 471.99829" width="471pt" xmlns="http://www.w3.org/2000/svg"><path d="m280.496094 338.71875v125.28125c0 4.417969-3.582032 8-8 8h-144c-4.417969 0-8-3.582031-8-8v-125.28125l80-58.71875zm0 0" fill="#ffc477"/><path d="m224.496094 408h32v32h-32zm0 0" fill="#e6e7e8"/><path d="m152.496094 408h48v64h-48zm0 0" fill="#8b5e3c"/><path d="m224.496094 352c0 13.253906-10.742188 24-24 24-13.253906 0-24-10.746094-24-24 0-13.257812 10.746094-24 24-24 13.257812 0 24 10.742188 24 24zm0 0" fill="#ffd422"/><path d="m280.496094 256v48.476562l-32-22.558593v-25.917969zm0 0" fill="#ffc477"/><path d="m408.496094 136h-24v96h-48v-96h-24l48-48zm0 0" fill="#ff6243"/><path d="m248.496094 56h-24v96h-48v-96h-24l48-48zm0 0" fill="#ff6243"/><path d="m104.496094 200h-24v96h-48v-96h-24l48-48zm0 0" fill="#ff6243"/><path d="m208.496094 285.839844-72 52.878906-16 11.757812v-11.757812l80-58.71875zm0 0" fill="#ffb655"/><path d="m280.496094 293.199219v11.277343l-32-22.558593v-11.28125zm0 0" fill="#ffb655"/><path d="m224.496094 408h16v32h-16zm0 0" fill="#d1d3d4"/><path d="m152.496094 408h16v64h-16zm0 0" fill="#754c29"/><path d="m152.496094 408h48v8h-48zm0 0" fill="#754c29"/><path d="m331.21875 347.679688c-.007812 5.394531-3.046875 10.328124-7.863281 12.761718-4.816407 2.433594-10.589844 1.953125-14.9375-1.242187l-27.921875-20.480469-80-58.71875-80 58.71875-27.917969 20.480469c-2.445313 1.761719-5.386719 2.714843-8.402344 2.71875-4.796875 0-9.285156-2.363281-12-6.320313-4.253906-6.457031-2.625-15.125 3.683594-19.597656l124.636719-88 48 33.917969 32 22.558593 44.640625 31.523438c3.792969 2.683594 6.058593 7.03125 6.082031 11.679688zm0 0" fill="#ff6243"/><path d="m256.496094 448h-32c-4.417969 0-8-3.582031-8-8v-32c0-4.421875 3.582031-8 8-8h32c4.417968 0 8 3.578125 8 8v32c0 4.417969-3.582032 8-8 8zm-24-16h16v-16h-16zm0 0" fill="#754c29"/><path d="m88.496094 296h-16v-96c0-4.421875 3.582031-8 8-8h4.6875l-28.6875-28.691406-28.6875 28.691406h4.6875c4.417968 0 8 3.578125 8 8v96h-16v-88h-16c-3.234375-.003906-6.148438-1.953125-7.386719-4.941406-1.238281-2.988282-.554687-6.429688 1.730469-8.714844l48-48c3.125-3.125 8.191406-3.125 11.3125 0l48 48c2.289062 2.285156 2.972656 5.726562 1.734375 8.714844-1.238281 2.988281-4.152344 4.9375-7.390625 4.941406h-16zm0 0" fill="#ffa733"/><path d="m232.496094 152h-16v-96c0-4.421875 3.582031-8 8-8h4.6875l-28.6875-28.691406-28.6875 28.691406h4.6875c4.417968 0 8 3.578125 8 8v96h-16v-88h-16c-3.234375-.003906-6.148438-1.953125-7.386719-4.941406-1.238281-2.988282-.554687-6.429688 1.730469-8.714844l48-48c3.125-3.125 8.191406-3.125 11.3125 0l48 48c2.289062 2.285156 2.972656 5.726562 1.734375 8.714844-1.238281 2.988281-4.152344 4.9375-7.390625 4.941406h-16zm0 0" fill="#ffa733"/><path d="m392.496094 232h-16v-96c0-4.421875 3.582031-8 8-8h4.6875l-28.6875-28.691406-28.6875 28.691406h4.6875c4.417968 0 8 3.578125 8 8v96h-16v-88h-16c-3.234375-.003906-6.148438-1.953125-7.386719-4.941406-1.238281-2.988282-.554687-6.429688 1.730469-8.714844l48-48c3.125-3.125 8.191406-3.125 11.3125 0l48 48c2.289062 2.285156 2.972656 5.726562 1.734375 8.714844-1.238281 2.988281-4.152344 4.9375-7.390625 4.941406h-16zm0 0" fill="#ffa733"/><g fill="#ff9811"><path d="m168.496094 168h16v16h-16zm0 0"/><path d="m168.496094 200h16v16h-16zm0 0"/><path d="m216.496094 168h16v32h-16zm0 0"/><path d="m328.496094 248h16v32h-16zm0 0"/><path d="m328.496094 296h16v16h-16zm0 0"/><path d="m376.496094 264h16v16h-16zm0 0"/><path d="m376.496094 312h16v16h-16zm0 0"/><path d="m24.496094 312h16v16h-16zm0 0"/><path d="m24.496094 344h16v16h-16zm0 0"/><path d="m24.496094 376h16v16h-16zm0 0"/></g></svg>