<svg height="464pt" viewBox="0 -36 464 464" width="464pt" xmlns="http://www.w3.org/2000/svg"><path d="m464 224c0-35.347656-21.492188-64-48-64s-48 28.652344-48 64 21.492188 64 48 64 48-28.652344 48-64zm0 0" fill="#009986"/><path d="m445.65625 229.65625-11.3125-11.3125-10.34375 10.34375v-28.6875h-16v37.078125l-10.238281-10.621094-11.523438 11.085938 21.761719 22.59375v75.863281h16v-84.6875zm0 0" fill="#008070"/><path d="m304 0h32v72h-32zm0 0" fill="#898890"/><path d="m144 232h192v160h-192zm0 0" fill="#acabb1"/><path d="m336 101.359375v130.640625h-192v-130.640625l96-61.359375zm0 0" fill="#898890"/><path d="m248 45.121094-88 56.238281-16 10.242187v-10.242187l96-61.359375zm0 0" fill="#898890"/><path d="m464 376v16h-96v-16c0-17.671875 14.328125-32 32-32 0-13.253906 10.746094-24 24-24s24 10.746094 24 24c-.015625 1.421875-.148438 2.839844-.398438 4.238281 10.113282 5.578125 16.394532 16.210938 16.398438 27.761719zm0 0" fill="#00ccb3"/><path d="m56 328h24v24h-24zm0 0" fill="#8b5e3c"/><path d="m112 312v80h-32v-80c.027344-8.824219 7.175781-15.972656 16-16 8.808594.066406 15.933594 7.191406 16 16zm0 0" fill="#a97c50"/><path d="m56 352v40h-32v-80c.027344-8.824219 7.175781-15.972656 16-16 8.808594.066406 15.933594 7.191406 16 16zm0 0" fill="#a97c50"/><path d="m176 312h48v80h-48zm0 0" fill="#8b5e3c"/><path d="m256 312h48v48h-48zm0 0" fill="#e6e7e8"/><path d="m256 168h48v32h-48zm0 0" fill="#e6e7e8"/><path d="m176 168h48v32h-48zm0 0" fill="#e6e7e8"/><path d="m264 112c0 13.253906-10.746094 24-24 24s-24-10.746094-24-24 10.746094-24 24-24 24 10.746094 24 24zm0 0" fill="#ffd422"/><path d="m336 101.359375-96-61.359375-96 61.359375-27.921875 17.839844c-2.445313 1.765625-5.382813 2.714843-8.398437 2.722656-4.796876-.003906-9.285157-2.367187-12-6.320313-4.253907-6.460937-2.625-15.125 3.679687-19.601562l136.402344-85.359375c2.597656-1.601563 5.878906-1.601563 8.476562 0l59.761719 37.359375 32 20.078125 44.640625 27.921875c3.792969 2.683594 6.054687 7.035156 6.078125 11.679688-.007812 5.394531-3.046875 10.328124-7.859375 12.761718-4.816406 2.433594-10.589844 1.953125-14.9375-1.242187zm0 0" fill="#ff6243"/><path d="m248 45.121094-88 56.238281-16 10.242187v-10.242187l96-61.359375zm0 0" fill="#787680"/><g fill="#d1d3d4"><path d="m176 168h16v32h-16zm0 0"/><path d="m256 168h16v32h-16zm0 0"/><path d="m176 168h48v8h-48zm0 0"/><path d="m256 168h48v8h-48zm0 0"/><path d="m256 312h16v48h-16zm0 0"/><path d="m256 312h48v8h-48zm0 0"/></g><path d="m176 312h16v80h-16zm0 0" fill="#754c29"/><path d="m176 312h48v8h-48zm0 0" fill="#754c29"/><path d="m0 328h24v24h-24zm0 0" fill="#8b5e3c"/></svg>