<svg height="463pt" viewBox="-84 0 463 463.94149" width="463pt" xmlns="http://www.w3.org/2000/svg"><path d="m159.363281 126.261719 5.117188 25.679687h-32l5.121093-25.679687c7.210938 1.121093 14.550782 1.121093 21.761719 0zm0 0" fill="#ff5023"/><path d="m228.480469 330.660156v125.28125c0 4.417969-3.578125 8-8 8h-144c-4.417969 0-8-3.582031-8-8v-125.28125l80-58.71875zm0 0" fill="#ffc477"/><path d="m172.480469 399.941406h32v32h-32zm0 0" fill="#e6e7e8"/><path d="m100.480469 399.941406h48v64h-48zm0 0" fill="#8b5e3c"/><path d="m172.480469 343.941406c0 13.253906-10.742188 24-24 24-13.253907 0-24-10.746094-24-24s10.746093-24 24-24c13.257812 0 24 10.746094 24 24zm0 0" fill="#ffd422"/><path d="m214.722656 146.902344-8.398437 24.800781-13.84375-8-13.839844-8 17.28125-19.679687c5.671875 4.566406 12.015625 8.234374 18.800781 10.878906zm0 0" fill="#ffcd00"/><path d="m101.042969 136.023438 17.28125 19.679687-13.84375 8-13.839844 8-8.398437-24.800781c6.785156-2.644532 13.125-6.3125 18.800781-10.878906zm0 0" fill="#00b39d"/><path d="m202.082031 39.78125c1.625 5.230469 2.433594 10.683594 2.398438 16.160156-.722657 19.6875-8.144531 38.542969-21.039063 53.441406-6.3125 7.742188-14.644531 13.585938-24.078125 16.878907-7.082031 2.238281-14.679687 2.238281-21.761719 0-9.433593-3.292969-17.765624-9.136719-24.078124-16.878907-12.894532-14.898437-20.316407-33.753906-21.042969-53.441406-.03125-5.476562.777343-10.929687 2.402343-16.160156 7.148438-23.621094 28.917969-39.78125 53.597657-39.78125 24.683593 0 46.453125 16.160156 53.601562 39.78125zm0 0" fill="#ff6243"/><path d="m268.480469 32.101562c12.875 7.410157 22.269531 19.640626 26.113281 33.988282 3.84375 14.351562 1.816406 29.640625-5.632812 42.492187-13.597657 23.597657-47.917969 44.238281-74.238282 38.320313-7.265625-1.53125-13.855468-5.34375-18.800781-10.878906-6.53125-7.5625-10.851563-16.78125-12.480469-26.640626 12.894532-14.898437 20.316406-33.753906 21.039063-53.441406.035156-5.476562-.773438-10.929687-2.398438-16.160156 18.027344-16.902344 44.992188-20.019531 66.398438-7.679688zm0 0" fill="#ffd422"/><path d="m82.242188 146.902344c-26.320313 5.917968-60.640626-14.722656-74.238282-38.320313-13.925781-24.0625-8.0937498-54.695312 13.703125-71.953125 21.792969-17.257812 52.945313-15.914062 73.175781 3.152344-1.625 5.230469-2.433593 10.683594-2.402343 16.160156.726562 19.6875 8.148437 38.542969 21.042969 53.441406-1.628907 9.859376-5.949219 19.078126-12.480469 26.640626-4.949219 5.535156-11.535157 9.347656-18.800781 10.878906zm0 0" fill="#00ccb3"/><path d="m156.480469 277.78125-72 52.878906-16 11.761719v-11.761719l80-58.71875zm0 0" fill="#ffb655"/><path d="m172.480469 399.941406h16v32h-16zm0 0" fill="#d1d3d4"/><g fill="#754c29"><path d="m100.480469 399.941406h16v64h-16zm0 0"/><path d="m100.480469 399.941406h48v8h-48zm0 0"/><path d="m204.480469 439.941406h-32c-4.417969 0-8-3.582031-8-8v-32c0-4.417968 3.582031-8 8-8h32c4.421875 0 8 3.582032 8 8v32c0 4.417969-3.578125 8-8 8zm-24-16h16v-16h-16zm0 0"/></g><path d="m141.5625 235.949219 43.992188-76.214844 13.855468 8-43.992187 76.214844zm0 0" fill="#ebbf00"/><path d="m97.550781 167.730469 13.859375-8 44 76.210937-13.859375 8zm0 0" fill="#00665a"/><path d="m140.480469 151.941406h16v96h-16zm0 0" fill="#cd2a00"/><path d="m279.203125 339.621094c-.007813 5.394531-3.046875 10.328125-7.863281 12.761718-4.816406 2.433594-10.589844 1.953126-14.9375-1.242187l-27.921875-20.480469-80-58.71875-80 58.71875-27.917969 20.480469c-2.445312 1.765625-5.382812 2.714844-8.398438 2.722656-4.796874-.003906-9.285156-2.367187-12-6.320312-4.253906-6.460938-2.628906-15.125 3.679688-19.601563l124.636719-88 124.640625 88c3.792968 2.683594 6.058594 7.035156 6.082031 11.679688zm0 0" fill="#ff6243"/></svg>