<svg height="464pt" viewBox="-7 0 464 464" width="464pt" xmlns="http://www.w3.org/2000/svg"><path d="m240 424c0 4.417969 3.582031 8 8 8h120c0 17.671875-14.328125 32-32 32h-256c-17.671875 0-32-14.328125-32-32v-16h192zm0 0" fill="#bcbec0"/><path d="m320 32v176l-124.640625 88c-6.304687 4.476562-7.933594 13.140625-3.679687 19.601562 2.714843 3.953126 7.203124 6.316407 12 6.320313 3.015624-.007813 5.953124-.957031 8.398437-2.722656l27.921875-20.480469v117.28125h-208c-17.671875 0-32-14.328125-32-32v-352c0-17.671875 14.328125-32 32-32h256c17.671875 0 32 14.328125 32 32zm0 0" fill="#e6e7e8"/><path d="m400 298.71875v125.28125c0 4.417969-3.582031 8-8 8h-144c-4.417969 0-8-3.582031-8-8v-125.28125l80-58.71875zm0 0" fill="#ffc477"/><path d="m368 241.921875-48-33.921875v-160h16c17.671875 0 32 14.328125 32 32zm0 0" fill="#bcbec0"/><path d="m344 368h32v32h-32zm0 0" fill="#e6e7e8"/><path d="m272 368h48v64h-48zm0 0" fill="#8b5e3c"/><path d="m400 216v48.480469l-32-22.558594v-25.921875zm0 0" fill="#ffc477"/><path d="m344 312c0 13.253906-10.746094 24-24 24s-24-10.746094-24-24 10.746094-24 24-24 24 10.746094 24 24zm0 0" fill="#ffd422"/><path d="m272 0v64l-24-24-24 24v-64zm0 0" fill="#ff6243"/><path d="m48 288h64v64h-64zm0 0" fill="#f1f2f2"/><path d="m112 200v48h-64v-64h64zm0 0" fill="#ffde55"/><path d="m112 88v48h-64v-64h64zm0 0" fill="#ffde55"/><path d="m328 245.839844-72 52.878906-16 11.761719v-11.761719l80-58.71875zm0 0" fill="#ffb655"/><path d="m400 253.199219v11.28125l-32-22.558594v-11.28125l16 11.28125zm0 0" fill="#ffb655"/><path d="m344 368h16v32h-16zm0 0" fill="#d1d3d4"/><path d="m272 368h16v64h-16zm0 0" fill="#754c29"/><path d="m272 368h48v8h-48zm0 0" fill="#754c29"/><path d="m450.71875 307.679688c-.007812 5.394531-3.046875 10.328124-7.859375 12.761718-4.816406 2.433594-10.589844 1.953125-14.9375-1.242187l-27.921875-20.480469-80-58.71875-80 58.71875-27.921875 20.480469c-2.445313 1.765625-5.382813 2.714843-8.398437 2.722656-4.796876-.003906-9.285157-2.367187-12-6.320313-4.253907-6.460937-2.625-15.125 3.679687-19.601562l124.640625-88 48 33.921875 32 22.558594 44.640625 31.519531c3.792969 2.683594 6.054687 7.035156 6.078125 11.679688zm0 0" fill="#ff6243"/><path d="m112 144h-64c-4.417969 0-8-3.582031-8-8v-64c0-4.417969 3.582031-8 8-8h64c4.417969 0 8 3.582031 8 8v64c0 4.417969-3.582031 8-8 8zm-56-16h48v-48h-48zm0 0" fill="#898890"/><path d="m88 120c-2.121094 0-4.15625-.84375-5.65625-2.34375l-16-16 11.3125-11.3125 10.34375 10.34375 42.34375-42.34375 11.3125 11.3125-48 48c-1.5 1.5-3.535156 2.34375-5.65625 2.34375zm0 0" fill="#ff6243"/><path d="m112 256h-64c-4.417969 0-8-3.582031-8-8v-64c0-4.417969 3.582031-8 8-8h64c4.417969 0 8 3.582031 8 8v64c0 4.417969-3.582031 8-8 8zm-56-16h48v-48h-48zm0 0" fill="#898890"/><path d="m88 232c-2.121094 0-4.15625-.84375-5.65625-2.34375l-16-16 11.3125-11.3125 10.34375 10.34375 42.34375-42.34375 11.3125 11.3125-48 48c-1.5 1.5-3.535156 2.34375-5.65625 2.34375zm0 0" fill="#ff6243"/><path d="m112 360h-64c-4.417969 0-8-3.582031-8-8v-64c0-4.417969 3.582031-8 8-8h64c4.417969 0 8 3.582031 8 8v64c0 4.417969-3.582031 8-8 8zm-56-16h48v-48h-48zm0 0" fill="#898890"/><path d="m152 112h80v16h-80zm0 0" fill="#acabb1"/><path d="m152 80h48v16h-48zm0 0" fill="#787680"/><path d="m152 224h80v16h-80zm0 0" fill="#acabb1"/><path d="m152 192h48v16h-48zm0 0" fill="#787680"/><path d="m376 408h-32c-4.417969 0-8-3.582031-8-8v-32c0-4.417969 3.582031-8 8-8h32c4.417969 0 8 3.582031 8 8v32c0 4.417969-3.582031 8-8 8zm-24-16h16v-16h-16zm0 0" fill="#754c29"/></svg>