<svg height="464pt" viewBox="-101 0 464 464" width="464pt" xmlns="http://www.w3.org/2000/svg"><path d="m210.6875 330.71875v125.28125c0 4.417969-3.582031 8-8 8h-144c-4.417969 0-8-3.582031-8-8v-125.28125l80-58.71875zm0 0" fill="#ffc477"/><path d="m138.6875 277.839844-72 52.878906-16 11.761719v-11.761719l80-58.71875zm0 0" fill="#ffc477"/><path d="m89.808594 137.121094c-2.300782 1.351562-4.492188 2.875-6.5625 4.558594-15.539063 12.0625-24.609375 30.648437-24.558594 50.320312v48c-.027344 8.824219-7.175781 15.972656-16 16-8.808594-.066406-15.933594-7.191406-16-16v-48c-.046875-34.367188 18.335938-66.121094 48.160156-83.199219 2.722656-1.65625 5.558594-3.125 8.480469-4.402343-1.882813 11.332031.417969 22.964843 6.480469 32.722656zm0 0" fill="#898890"/><path d="m234.6875 192v48c-.027344 8.824219-7.175781 15.972656-16 16-8.808594-.066406-15.933594-7.191406-16-16v-48c.046875-19.671875-9.023438-38.257812-24.5625-50.320312-2.066406-1.683594-4.261719-3.207032-6.558594-4.558594 6.058594-9.757813 8.363282-21.390625 6.480469-32.722656 2.921875 1.277343 5.753906 2.746093 8.480469 4.402343 29.824218 17.078125 48.203125 48.832031 48.160156 83.199219zm0 0" fill="#898890"/><path d="m170.6875 8v77.519531c-8.875-13.433593-23.898438-21.519531-40-21.519531s-31.128906 8.085938-40 21.519531v-77.519531c0-4.417969 3.582031-8 8-8h64c4.417969 0 8 3.582031 8 8zm0 0" fill="#57565c"/><path d="m178.6875 112c.035156 8.875-2.433594 17.582031-7.121094 25.121094-8.734375 14.195312-24.210937 22.84375-40.878906 22.84375s-32.144531-8.648438-40.878906-22.84375c-6.0625-9.757813-8.363282-21.390625-6.480469-32.722656 1.023437-6.757813 3.539063-13.207032 7.359375-18.878907 8.871094-13.433593 23.898438-21.519531 40-21.519531s31.125 8.085938 40 21.519531c3.820312 5.671875 6.332031 12.121094 7.359375 18.878907.417969 2.511718.632813 5.054687.640625 7.601562zm0 0" fill="#787680"/><path d="m82.6875 112c-.035156 8.875 2.429688 17.582031 7.121094 25.121094-2.300782 1.351562-4.492188 2.875-6.5625 4.558594-.078125-.160157-.160156-.238282-.238282-.398438-5.492187-8.777344-8.378906-18.929688-8.320312-29.28125-.03125-1.070312.023438-2.140625.160156-3.199219 2.722656-1.65625 5.558594-3.125 8.480469-4.402343-.417969 2.511718-.632813 5.054687-.640625 7.601562zm0 0" fill="#706f75"/><path d="m186.6875 112c.058594 10.351562-2.828125 20.503906-8.320312 29.28125-.082032.160156-.160157.238281-.242188.398438-2.066406-1.683594-4.261719-3.207032-6.558594-4.558594 6.058594-9.757813 8.363282-21.390625 6.480469-32.722656 2.921875 1.277343 5.753906 2.746093 8.480469 4.402343.132812 1.058594.1875 2.128907.160156 3.199219zm0 0" fill="#706f75"/><path d="m154.6875 400h32v32h-32zm0 0" fill="#e6e7e8"/><path d="m82.6875 400h48v64h-48zm0 0" fill="#8b5e3c"/><path d="m154.6875 344c0 13.253906-10.746094 24-24 24s-24-10.746094-24-24 10.746094-24 24-24 24 10.746094 24 24zm0 0" fill="#ffd422"/><path d="m138.6875 277.839844-72 52.878906-16 11.761719v-11.761719l80-58.71875zm0 0" fill="#ffb655"/><path d="m146.6875 112c0 8.835938-7.164062 16-16 16s-16-7.164062-16-16 7.164062-16 16-16 16 7.164062 16 16zm0 0" fill="#57565c"/><path d="m154.6875 400h16v32h-16zm0 0" fill="#d1d3d4"/><path d="m261.40625 339.679688c-.007812 5.394531-3.046875 10.328124-7.863281 12.761718-4.8125 2.433594-10.589844 1.953125-14.9375-1.242187l-27.917969-20.480469-80-58.71875-80 58.71875-27.921875 20.480469c-2.445313 1.765625-5.382813 2.714843-8.398437 2.722656-4.796876-.003906-9.285157-2.367187-12-6.320313-4.253907-6.460937-2.628907-15.125 3.679687-19.601562l124.640625-88 124.640625 88c3.789063 2.683594 6.054687 7.035156 6.078125 11.679688zm0 0" fill="#ff6243"/><g fill="#754c29"><path d="m82.6875 400h16v64h-16zm0 0"/><path d="m82.6875 400h48v8h-48zm0 0"/><path d="m186.6875 440h-32c-4.417969 0-8-3.582031-8-8v-32c0-4.417969 3.582031-8 8-8h32c4.417969 0 8 3.582031 8 8v32c0 4.417969-3.582031 8-8 8zm-24-16h16v-16h-16zm0 0"/></g></svg>