<svg height="465pt" viewBox="-11 0 465 465.27041" width="465pt" xmlns="http://www.w3.org/2000/svg"><path d="m242.820312 280h-64c-30.910156-.035156-55.964843-25.085938-56-56h16c.027344 22.082031 17.921876 39.972656 40 40h64c22.082032-.027344 39.976563-17.917969 40-40v-160c.035157-30.914062 25.089844-55.964844 56-56h16c30.914063.035156 55.964844 25.085938 56 56v40h-16v-40c-.023437-22.082031-17.917968-39.972656-40-40h-16c-22.078124.027344-39.972656 17.917969-40 40v160c-.035156 30.914062-25.085937 55.964844-56 56zm0 0" fill="#acabb1"/><path d="m210.820312 90.71875v125.28125c0 4.417969-3.578124 8-8 8h-144c-4.417968 0-8-3.582031-8-8v-125.28125l80-58.71875zm0 0" fill="#ffc477"/><path d="m138.820312 37.839844-72 52.878906-16 11.761719v-11.761719l80-58.71875zm0 0" fill="#ffc477"/><path d="m418.820312 176v104l-16 8-16-8v-104zm0 0" fill="#898890"/><path d="m442.820312 116.398438v43.601562c-.023437 8.824219-7.171874 15.972656-16 16h-48c-8.824218-.027344-15.972656-7.175781-16-16v-43.601562c-.007812-2.785157 1.449219-5.367188 3.839844-6.796876 10.871094-7.210937 23.234375-11.859374 36.160156-13.601562 12.929688 1.742188 25.292969 6.390625 36.160157 13.601562 2.390625 1.429688 3.851562 4.011719 3.839843 6.796876zm0 0" fill="#57565c"/><path d="m154.820312 160h32v32h-32zm0 0" fill="#e6e7e8"/><path d="m82.820312 160h48v64h-48zm0 0" fill="#8b5e3c"/><path d="m154.820312 104c0 13.253906-10.742187 24-24 24-13.253906 0-24-10.746094-24-24s10.746094-24 24-24c13.257813 0 24 10.746094 24 24zm0 0" fill="#ffd422"/><path d="m138.820312 37.839844-72 52.878906-16 11.761719v-11.761719l80-58.71875zm0 0" fill="#ffb655"/><path d="m2.820312 359.988281 60.167969-21.902343 38.324219 105.28125-60.171875 21.902343zm0 0" fill="#3d9ae2"/><path d="m158.660156 413.921875 5.523438 15.039063-60.160156 21.917968-2.722657-7.519531-38.320312-105.28125-2.71875-7.519531 60.082031-21.839844 5.519531 15.042969zm0 0" fill="#1e81ce"/><path d="m313.703125 340.480469 57.519531-20.878907c5.960938-2.238281 12.574219-1.949218 18.320313.796876 8.753906 4.121093 14.183593 13.09375 13.761719 22.761718-.417969 9.667969-6.601563 18.136719-15.683594 21.480469l-142.800782 52-22.558593 8.238281-48.558594-16.398437-15.042969 5.441406-32.796875-90.160156 59.757813-21.761719 18.640625 3.28125 90.082031 15.917969c8.449219 1.488281 15.46875 7.375 18.398438 15.441406.441406 1.246094.761718 2.53125.960937 3.839844zm0 0" fill="#ffdaaa"/><path d="m386.820312 176h32v16h-32zm0 0" fill="#787680"/><path d="m154.820312 160h16v32h-16zm0 0" fill="#d1d3d4"/><path d="m261.542969 99.679688c-.007813 5.394531-3.046875 10.328124-7.863281 12.761718-4.816407 2.433594-10.589844 1.953125-14.9375-1.242187l-27.921876-20.480469-80-58.71875-80 58.71875-27.917968 20.480469c-2.445313 1.765625-5.382813 2.714843-8.398438 2.722656-4.796875-.003906-9.289062-2.367187-12-6.320313-4.257812-6.460937-2.628906-15.125 3.679688-19.601562l124.636718-88 124.640626 88c3.792968 2.683594 6.058593 7.035156 6.082031 11.679688zm0 0" fill="#ff6243"/><path d="m82.820312 160h16v64h-16zm0 0" fill="#754c29"/><path d="m82.820312 160h48v8h-48zm0 0" fill="#754c29"/><path d="m402.820312 136c-2.125.023438-4.175781-.8125-5.679687-2.320312-1.503906-1.503907-2.339844-3.550782-2.320313-5.679688-.027343-1.050781.191407-2.089844.640626-3.039062.386718-.980469.957031-1.875 1.679687-2.640626 1.917969-1.886718 4.644531-2.699218 7.28125-2.160156.5.089844.988281.25 1.441406.480469.507813.175781.992188.417969 1.4375.71875l1.203125.960937c.703125.777344 1.273438 1.671876 1.679688 2.640626.410156.960937.625 1.992187.636718 3.039062-.03125 2.117188-.859374 4.144531-2.316406 5.679688-.382812.34375-.785156.664062-1.203125.960937-.445312.300781-.929687.542969-1.4375.71875-.453125.230469-.941406.390625-1.441406.480469-.527344.09375-1.0625.144531-1.601563.160156zm0 0" fill="#acabb1"/><path d="m186.820312 200h-32c-4.417968 0-8-3.582031-8-8v-32c0-4.417969 3.582032-8 8-8h32c4.421876 0 8 3.582031 8 8v32c0 4.417969-3.578124 8-8 8zm-24-16h16v-16h-16zm0 0" fill="#754c29"/><path d="m290.132812 376.800781c-1.847656-.003906-3.695312-.164062-5.519531-.488281l-82.191406-14.464844c-4.351563-.765625-7.257813-4.917968-6.488281-9.273437.769531-4.347657 4.914062-7.25 9.265625-6.484375l82.183593 14.496094c8.699219 1.457031 16.964844-4.339844 18.550782-13.019532.316406-1.792968.296875-3.628906-.0625-5.414062-.058594-.28125-.105469-.566406-.136719-.847656-.121094-.742188-.328125-1.46875-.617187-2.160157-2.046876-5.335937-6.761719-9.195312-12.398438-10.144531l-81.984375-14.480469c-4.351563-.765625-7.257813-4.917969-6.488281-9.273437.769531-4.351563 4.917968-7.257813 9.273437-6.484375l82.183594 14.519531c11.257813 2 20.601563 9.847656 24.519531 20.589844.660156 1.730468 1.125 3.527344 1.382813 5.359375.695312 3.644531.726562 7.386719.089843 11.042969-2.730468 15.304687-16.015624 26.46875-31.5625 26.527343zm0 0" fill="#ffc477"/></svg>