<svg height="464pt" viewBox="0 -16 464 464" width="464pt" xmlns="http://www.w3.org/2000/svg"><path d="m88 192v240h288v-240zm0 0" fill="#c49a6c"/><path d="m464 432h-136c0-17.671875 14.328125-32 32-32 .398438 0 .800781.078125 1.199219.078125-.765625-2.625-1.171875-5.34375-1.199219-8.078125 0-17.671875 14.328125-32 32-32s32 14.328125 32 32c22.089844 0 40 17.910156 40 40zm0 0" fill="#00ccb3"/><path d="m428 196c6.628906 6.628906 6.628906 17.371094 0 24s-17.371094 6.628906-24 0l-160.71875-160.71875c-2.992188-2.996094-7.050781-4.679688-11.28125-4.679688s-8.289062 1.683594-11.28125 4.679688l-160.71875 160.71875c-6.628906 6.628906-17.371094 6.628906-24 0s-6.628906-17.371094 0-24l184.71875-184.71875c2.992188-2.996094 7.050781-4.679688 11.28125-4.679688s8.289062 1.683594 11.28125 4.679688zm0 0" fill="#ff6243"/><path d="m376 349.28125c-10.804688-3.847656-19.882812-11.421875-25.601562-21.359375h-14.476563l-15.921875-15.921875h-16v15.601562h-16.398438l-15.601562-15.601562h-24l-16 16h-24v-48h142.480469c12.710937-21.875 40.238281-30.097656 62.867187-18.777344 22.628906 11.316406 32.558594 38.273438 22.679688 61.566406-9.878906 23.292969-36.164063 34.890626-60.027344 26.492188zm40-45.28125c0-8.835938-7.164062-16-16-16s-16 7.164062-16 16 7.164062 16 16 16c8.824219-.027344 15.972656-7.175781 16-16zm0 0" fill="#ffa733"/><path d="m392 8v16c0 4.417969-3.582031 8-8 8h-80c-4.417969 0-8-3.582031-8-8v-16c0-4.417969 3.582031-8 8-8h80c4.417969 0 8 3.582031 8 8zm0 0" fill="#ff6243"/><path d="m376 32v112l-64-64v-48zm0 0" fill="#c49a6c"/><path d="m376 192h-288l132.71875-132.71875c2.992188-2.996094 7.050781-4.679688 11.28125-4.679688s8.289062 1.683594 11.28125 4.679688zm0 0" fill="#ffc477"/><path d="m256 312v56h-48v-40h24l16-16zm0 0" fill="#57565c"/><path d="m256 240v40h-48v-40zm0 0" fill="#57565c"/><path d="m112 320h48v48h-48zm0 0" fill="#e6e7e8"/><path d="m136 432h-48v-49.679688c3 2.65625 5.261719 6.046876 6.558594 9.839844.480468 0 .960937-.160156 1.441406-.160156 2.6875-.019531 5.371094.25 8 .800781 18.625 3.800781 32.003906 20.1875 32 39.199219zm0 0" fill="#a97c50"/><path d="m376 128v16l-64-64v-16zm0 0" fill="#a97c50"/><path d="m236.71875 59.28125c.960938-.988281 2.070312-1.824219 3.28125-2.480469-6.242188-3.65625-14.164062-2.636719-19.28125 2.480469l-132.71875 132.71875h16zm0 0" fill="#ffb655"/><path d="m88 192v16l16-16zm0 0" fill="#a97c50"/><path d="m120 432h-120c0-13.253906 10.746094-24 24-24 3.671875.023438 7.285156.898438 10.558594 2.558594-1.660156-3.273438-2.535156-6.886719-2.558594-10.558594-.035156-11.710938 8.40625-21.722656 19.953125-23.667969 11.546875-1.945312 22.804687 4.753907 26.605469 15.828125.480468 0 .960937-.160156 1.441406-.160156 2.6875-.019531 5.371094.25 8 .800781 18.625 3.800781 32.003906 20.1875 32 39.199219zm0 0" fill="#00ccb3"/><path d="m112 320h16v48h-16zm0 0" fill="#d1d3d4"/><g fill="#3e3d42"><path d="m208 240h16v40h-16zm0 0"/><path d="m208 328h16v40h-16zm0 0"/><path d="m208 240h48v8h-48zm0 0"/></g><path d="m160 376h-48c-4.417969 0-8-3.582031-8-8v-48c0-4.417969 3.582031-8 8-8h48c4.417969 0 8 3.582031 8 8v48c0 4.417969-3.582031 8-8 8zm-40-16h32v-32h-32zm0 0" fill="#754c29"/></svg>