<svg height="474pt" viewBox="0 -5 474.71829 474" width="474pt" xmlns="http://www.w3.org/2000/svg"><path d="m424 82.519531v93.839844c0 4.417969-3.582031 8-8 8h-96c-4.421875 0-8-3.582031-8-8v-93.839844l56-42.160156zm0 0" fill="#ffc477"/><path d="m376 46.359375-48 36.160156-16 12.078125v-12.078125l56-42.160156zm0 0" fill="#ffc477"/><path d="m416 408.359375v16c0 4.417969-3.582031 8-8 8h-80c-4.421875 0-8-3.582031-8-8v-16c0-4.417969 3.578125-8 8-8h80c4.417969 0 8 3.582031 8 8zm0 0" fill="#ffa733"/><path d="m416 344.359375v16c0 4.417969-3.582031 8-8 8h-80c-4.421875 0-8-3.582031-8-8v-16c0-4.417969 3.578125-8 8-8h80c4.417969 0 8 3.582031 8 8zm0 0" fill="#ffa733"/><path d="m328 272.359375h72c4.417969 0 8 3.582031 8 8v16c0 4.417969-3.582031 8-8 8h-80c-4.421875 0-8-3.582031-8-8v-16c0-4.417969 3.578125-8 8-8zm0 0" fill="#ffa733"/><path d="m168 304.359375h80c4.417969 0 8 3.582031 8 8v16c0 4.417969-3.582031 8-8 8h-80c-4.421875 0-8-3.582031-8-8v-16c0-4.417969 3.578125-8 8-8zm0 0" fill="#ffa733"/><path d="m256 376.359375v16c0 4.417969-3.582031 8-8 8h-80c-4.421875 0-8-3.582031-8-8v-16c0-4.417969 3.578125-8 8-8h80c4.417969 0 8 3.582031 8 8zm0 0" fill="#ffa733"/><path d="m176 432.359375h72c4.417969 0 8 3.582031 8 8v16c0 4.417969-3.582031 8-8 8h-80c-4.421875 0-8-3.582031-8-8v-16c0-4.417969 3.578125-8 8-8zm0 0" fill="#ffa733"/><path d="m112 408.359375v16c0 4.417969-3.582031 8-8 8h-80c-4.421875 0-8-3.582031-8-8v-16c0-4.417969 3.578125-8 8-8h80c4.417969 0 8 3.582031 8 8zm0 0" fill="#ffa733"/><g fill="#ffb655"><path d="m416 248.359375v16c0 4.417969-3.582031 8-8 8h-80c-4.421875 0-8-3.582031-8-8v-16c0-4.417969 3.578125-8 8-8h80c4.417969 0 8 3.582031 8 8zm0 0"/><path d="m416 312.359375v16c0 4.417969-3.582031 8-8 8h-80c-4.421875 0-8-3.582031-8-8v-16c0-4.417969 3.578125-8 8-8h80c4.417969 0 8 3.582031 8 8zm0 0"/><path d="m328 368.359375h72c4.417969 0 8 3.582031 8 8v16c0 4.417969-3.582031 8-8 8h-80c-4.421875 0-8-3.582031-8-8v-16c0-4.417969 3.578125-8 8-8zm0 0"/><path d="m328 432.359375h72c4.417969 0 8 3.582031 8 8v16c0 4.417969-3.582031 8-8 8h-80c-4.421875 0-8-3.582031-8-8v-16c0-4.417969 3.578125-8 8-8zm0 0"/><path d="m168 336.359375h80c4.417969 0 8 3.582031 8 8v16c0 4.417969-3.582031 8-8 8h-80c-4.421875 0-8-3.582031-8-8v-16c0-4.417969 3.578125-8 8-8zm0 0"/><path d="m264 408.359375v16c0 4.417969-3.582031 8-8 8h-80c-4.421875 0-8-3.582031-8-8v-16c0-4.417969 3.578125-8 8-8h80c4.417969 0 8 3.582031 8 8zm0 0"/><path d="m104 376.359375v16c0 4.417969-3.582031 8-8 8h-80c-4.421875 0-8-3.582031-8-8v-16c0-4.417969 3.578125-8 8-8h80c4.417969 0 8 3.582031 8 8zm0 0"/><path d="m24 432.359375h72c4.417969 0 8 3.582031 8 8v16c0 4.417969-3.582031 8-8 8h-80c-4.421875 0-8-3.582031-8-8v-16c0-4.417969 3.578125-8 8-8zm0 0"/></g><path d="m384 88.359375c0 8.835937-7.164062 16-16 16-8.839844 0-16-7.164063-16-16s7.160156-16 16-16c8.835938 0 16 7.164063 16 16zm0 0" fill="#ffd422"/><path d="m344 136.359375h48v48h-48zm0 0" fill="#8b5e3c"/><path d="m432 .359375v50.878906l-24-19.117187v-31.761719zm0 0" fill="#ffc477"/><path d="m312 82.519531-27.921875 21.039063c-2.445313 1.765625-5.382813 2.714844-8.398437 2.71875-4.796876 0-9.285157-2.363282-12-6.316406-4.253907-6.460938-2.628907-15.125 3.679687-19.601563l95.679687-76.082031c2.898438-2.320313 7.019532-2.320313 9.917969 0l35.042969 27.84375 24 19.117187 36.636719 29.121094c3.792969 2.683594 6.058593 7.035156 6.082031 11.679687-.007812 5.394532-3.046875 10.328126-7.863281 12.761719-4.816407 2.433594-10.589844 1.953125-14.9375-1.242187l-27.917969-21.039063-56-42.160156zm0 0" fill="#ff6243"/><path d="m376 46.359375-48 36.160156-16 12.078125v-12.078125l56-42.160156zm0 0" fill="#ffb655"/><path d="m432 38.519531v12.71875l-24-19.117187v-12.722656l16 12.722656zm0 0" fill="#ffb655"/><path d="m256 160.359375h-24v80h-48v-80h-24l48-48zm0 0" fill="#ff6243"/><path d="m104 280.359375h-24v64h-48v-64h-24l48-48zm0 0" fill="#ff6243"/><path d="m344 136.359375h16v48h-16zm0 0" fill="#754c29"/><path d="m344 136.359375h48v8h-48zm0 0" fill="#754c29"/><path d="m240 240.359375h-16v-80c0-4.417969 3.578125-8 8-8h4.6875l-28.6875-28.6875-28.691406 28.6875h4.691406c4.417969 0 8 3.582031 8 8v80h-16v-72h-16c-3.238281 0-6.152344-1.949219-7.390625-4.9375-1.238281-2.992187-.554687-6.429687 1.734375-8.71875l48-48c3.121094-3.121094 8.1875-3.121094 11.308594 0l48 48c2.289062 2.289063 2.972656 5.726563 1.734375 8.71875-1.238281 2.988281-4.152344 4.9375-7.386719 4.9375h-16zm0 0" fill="#ffa733"/><path d="m88 344.359375h-16v-64c0-4.417969 3.578125-8 8-8h4.6875l-28.6875-28.6875-28.691406 28.6875h4.691406c4.417969 0 8 3.582031 8 8v64h-16v-56h-16c-3.238281 0-6.152344-1.949219-7.390625-4.9375-1.238281-2.992187-.5546875-6.429687 1.734375-8.71875l48-48c3.121094-3.121094 8.1875-3.121094 11.308594 0l48 48c2.289062 2.289063 2.972656 5.726563 1.734375 8.71875-1.238281 2.988281-4.152344 4.9375-7.386719 4.9375h-16zm0 0" fill="#ffa733"/><path d="m176 256.359375h16v16h-16zm0 0" fill="#ffa733"/><path d="m224 264.359375h16v16h-16zm0 0" fill="#ffa733"/></svg>