<svg height="476pt" viewBox="-45 0 476 476.56" width="476pt" xmlns="http://www.w3.org/2000/svg"><path d="m224.28125 32v32h-80v-32zm0 0" fill="#5aaae7"/><path d="m40.28125 168h80v136h-80zm0 0" fill="#5aaae7"/><path d="m248.28125 136h80v168h-80zm0 0" fill="#5aaae7"/><path d="m120.28125 304v-240h128v240zm0 0" fill="#3d9ae2"/><path d="m160.28125 256h48v48h-48zm0 0" fill="#d1d3d4"/><path d="m387.238281 356.320312-43.757812 120.238282-45.121094-16.398438 5.441406-15.039062 32.878907-90.242188 5.441406-15.039062zm0 0" fill="#3d9ae2"/><path d="m148.839844 371.679688c.121094-1.347657.445312-2.667969.960937-3.917969 2.929688-8.066407 9.945313-13.957031 18.398438-15.441407l90.082031-15.921874 18.640625-3.277344 59.757813 21.757812-32.878907 90.242188-14.960937-5.441406-48.558594 16.320312-22.5625-8.160156-141.757812-51.601563c-11.082032-3.769531-18.019532-14.773437-16.640626-26.398437 1.03125-7.160156 5.234376-13.472656 11.445313-17.183594s13.761719-4.421875 20.554687-1.9375zm0 0" fill="#ffdaaa"/><path d="m104.28125 168h16v136h-16zm0 0" fill="#4f96cc"/><path d="m248.28125 136h16v168h-16zm0 0" fill="#4f96cc"/><g fill="#bddbff"><path d="m176.28125 216h16v16h-16zm0 0"/><path d="m208.28125 216h16v16h-16zm0 0"/><path d="m144.28125 216h16v16h-16zm0 0"/><path d="m176.28125 184h16v16h-16zm0 0"/><path d="m208.28125 184h16v16h-16zm0 0"/><path d="m144.28125 184h16v16h-16zm0 0"/><path d="m176.28125 152h16v16h-16zm0 0"/><path d="m208.28125 152h16v16h-16zm0 0"/><path d="m144.28125 152h16v16h-16zm0 0"/><path d="m176.28125 120h16v16h-16zm0 0"/><path d="m208.28125 120h16v16h-16zm0 0"/><path d="m144.28125 120h16v16h-16zm0 0"/><path d="m176.28125 88h16v16h-16zm0 0"/><path d="m208.28125 88h16v16h-16zm0 0"/><path d="m144.28125 88h16v16h-16zm0 0"/></g><path d="m272.28125 160h32v16h-32zm0 0" fill="#c2dff6"/><path d="m272.28125 192h32v16h-32zm0 0" fill="#c2dff6"/><path d="m272.28125 224h32v16h-32zm0 0" fill="#c2dff6"/><path d="m272.28125 256h32v16h-32zm0 0" fill="#c2dff6"/><path d="m64.28125 192h32v16h-32zm0 0" fill="#c2dff6"/><path d="m64.28125 224h32v16h-32zm0 0" fill="#c2dff6"/><path d="m64.28125 256h32v16h-32zm0 0" fill="#c2dff6"/><path d="m176.28125 0h16v32h-16zm0 0" fill="#bddbff"/><path d="m.28125 296h368v16h-368zm0 0" fill="#1a6fb0"/><path d="m172.375 408c-15.519531-.042969-28.792969-11.171875-31.542969-26.449219-.648437-3.691406-.621093-7.46875.078125-11.152343.257813-1.832032.722656-3.628907 1.378906-5.359376 3.921876-10.738281 13.261719-18.578124 24.519532-20.582031l108.71875-19.199219c1.382812-.253906 2.804687-.132812 4.121094.359376l20.496093 7.460937c1.996094.722656 3.625 2.210937 4.527344 4.132813.898437 1.925781.996094 4.128906.273437 6.125-1.503906 4.15625-6.09375 6.304687-10.25 4.800781l-18.488281-6.730469-106.207031 18.730469c-5.707031.933593-10.496094 4.808593-12.609375 10.191406-.285156.699219-.488281 1.425781-.613281 2.167969-.03125.269531-.078125.535156-.136719.800781-.359375 1.820313-.371094 3.691406-.039063 5.519531 1.617188 8.644532 9.867188 14.394532 18.535157 12.917969l82.183593-14.46875c4.347657-.765625 8.492188 2.132813 9.265626 6.476563.761718 4.351562-2.140626 8.496093-6.488282 9.265624l-82.21875 14.503907c-1.816406.320312-3.65625.480469-5.503906.488281zm0 0" fill="#ffb655"/></svg>