<svg height="472pt" viewBox="-3 0 472 472" width="472pt" xmlns="http://www.w3.org/2000/svg"><path d="m416 90.71875v125.28125c0 4.417969-3.582031 8-8 8h-144c-4.417969 0-8-3.582031-8-8v-125.28125l80-58.71875zm0 0" fill="#ffc477"/><path d="m96 384c0 32-48 80-48 80s-48-48-48-80c0-26.507812 21.492188-48 48-48s48 21.492188 48 48zm0 0" fill="#ff6243"/><path d="m360 160h32v32h-32zm0 0" fill="#e6e7e8"/><path d="m360 104c0 13.253906-10.746094 24-24 24s-24-10.746094-24-24 10.746094-24 24-24 24 10.746094 24 24zm0 0" fill="#ffd422"/><path d="m288 160h48v64h-48zm0 0" fill="#8b5e3c"/><path d="m416 8v48.480469l-32-22.558594v-25.921875zm0 0" fill="#ffc477"/><path d="m64 384c0 8.835938-7.164062 16-16 16s-16-7.164062-16-16 7.164062-16 16-16 16 7.164062 16 16zm0 0" fill="#ffa733"/><path d="m466.71875 99.679688c-.007812 5.394531-3.046875 10.328124-7.859375 12.761718-4.816406 2.433594-10.589844 1.953125-14.9375-1.242187l-27.921875-20.480469-80-58.71875-80 58.71875-27.921875 20.480469c-2.445313 1.765625-5.382813 2.714843-8.398437 2.722656-4.796876-.003906-9.285157-2.367187-12-6.320313-4.253907-6.460937-2.625-15.125 3.679687-19.601562l124.640625-88 48 33.921875 32 22.558594 44.640625 31.519531c3.792969 2.683594 6.054687 7.035156 6.078125 11.679688zm0 0" fill="#ff6243"/><path d="m344 37.839844-72 52.878906-16 11.761719v-11.761719l80-58.71875zm0 0" fill="#ffb655"/><path d="m416 45.199219v11.28125l-32-22.558594v-11.28125l16 11.28125zm0 0" fill="#ffb655"/><path d="m360 160h16v32h-16zm0 0" fill="#d1d3d4"/><g fill="#754c29"><path d="m288 160h16v64h-16zm0 0"/><path d="m288 160h48v8h-48zm0 0"/><path d="m392 200h-32c-4.417969 0-8-3.582031-8-8v-32c0-4.417969 3.582031-8 8-8h32c4.417969 0 8 3.582031 8 8v32c0 4.417969-3.582031 8-8 8zm-24-16h16v-16h-16zm0 0"/></g><path d="m256 472h-16v-16h16zm-32 0h-16v-16h16zm-32 0h-16v-16h16zm-32 0h-16v-16h16zm-32 0h-16v-16h16zm-32 0h-16v-16h16zm177.472656-1.734375-3.199218-15.691406c4.703124-.945313 9.300781-2.363281 13.71875-4.238281l6.246093 14.734374c-5.398437 2.289063-11.015625 4.027344-16.765625 5.195313zm32.207032-13.601563-9.046876-13.183593c3.960938-2.726563 7.644532-5.835938 11-9.28125l11.472657 11.199219c-4.097657 4.175781-8.59375 7.941406-13.425781 11.242187zm24.351562-25.054687-13.457031-8.65625c2.59375-4.042969 4.785156-8.332031 6.539062-12.800781l14.902344 5.808594c-2.140625 5.457031-4.8125 10.691406-7.984375 15.625zm12.6875-32.585937-15.765625-2.71875c.699219-4.066407 1.050781-8.179688 1.046875-12.304688v-2.039062l16-.496094v2.535156c0 5.027344-.429688 10.046875-1.28125 15zm-16.574219-31.34375c-1.078125-4.679688-2.636719-9.234376-4.640625-13.601563l14.550782-6.671875c2.449218 5.347656 4.351562 10.925781 5.679687 16.648438zm-11.898437-26.007813c-2.832032-3.886719-6.046875-7.476563-9.597656-10.71875l10.847656-11.753906c4.328125 3.953125 8.25 8.328125 11.703125 13.066406zm-21.078125-19.351563c-4.101563-2.484374-8.449219-4.546874-12.96875-6.152343l5.359375-15.078125c5.542968 1.96875 10.867187 4.496094 15.898437 7.542968zm-26.921875-9.601562c-3.390625-.484375-6.816406-.726562-10.246094-.71875h-4.574219v-16h4.574219c4.1875 0 8.367188.292969 12.511719.878906zm-30.820313-.71875h-16v-16h16zm-32 0h-16v-16h16zm-32 0h-16v-16h16zm-32 0h-16v-16h16zm-32.5625-.183594c-5.988281-.425781-11.898437-1.59375-17.597656-3.480468l5.03125-15.199219c4.433594 1.464843 9.035156 2.371093 13.695313 2.703125zm-33.800781-11.25c-5.042969-3.25-9.664062-7.109375-13.757812-11.496094l11.6875-10.917968c3.195312 3.417968 6.796874 6.429687 10.726562 8.96875zm-24.261719-26.070312c-2.875-5.265625-5.089843-10.871094-6.585937-16.679688l15.503906-4c1.160156 4.527344 2.878906 8.894532 5.121094 13zm7.199219-34.496094h-16c0-6.003906.746094-11.988281 2.222656-17.808594l15.503906 3.945313c-1.148437 4.53125-1.730468 9.1875-1.726562 13.863281zm6.839844-26.832031-14.039063-7.679688c2.878907-5.273437 6.410157-10.164062 10.511719-14.558593l11.703125 10.917968c-3.1875 3.414063-5.933594 7.214844-8.175781 11.3125zm18.902344-20.289063-8.671876-13.445312c5.054688-3.257813 10.496094-5.867188 16.203126-7.761719l5.03125 15.199219c-4.421876 1.464844-8.644532 3.480468-12.5625 6zm26.257812-8.742187-1.160156-16c1.710937-.117188 3.4375-.175781 5.175781-.175781h11.425781v16h-11.441406c-1.3125.039062-2.671875.085937-4 .175781zm111.441406-.136719h-16v-16h16zm-32 0h-16v-16h16zm-32 0h-16v-16h16zm0 0" fill="#ee8700"/></svg>