<svg height="466pt" viewBox="0 -1 466.72 466" width="466pt" xmlns="http://www.w3.org/2000/svg"><path d="m224 48.359375v40h-224v-40l112-48zm0 0" fill="#787680"/><path d="m48 88.359375v120h128v-120zm0 0" fill="#c6c5ca"/><path d="m416 331.078125v125.28125c0 4.417969-3.582031 8-8 8h-144c-4.417969 0-8-3.582031-8-8v-125.28125l80-58.71875zm0 0" fill="#ffc477"/><path d="m360 400.359375h32v32h-32zm0 0" fill="#e6e7e8"/><path d="m288 400.359375h48v64h-48zm0 0" fill="#8b5e3c"/><path d="m360 344.359375c0 13.253906-10.746094 24-24 24s-24-10.746094-24-24 10.746094-24 24-24 24 10.746094 24 24zm0 0" fill="#ffd422"/><path d="m416 248.359375v48.480469l-32-22.558594v-25.921875zm0 0" fill="#ffc477"/><path d="m128 48.359375c0 8.835937-7.164062 16-16 16s-16-7.164063-16-16 7.164062-16 16-16 16 7.164063 16 16zm0 0" fill="#e6e7e8"/><path d="m144 160.359375v48h-64v-48c0-17.671875 14.328125-32 32-32s32 14.328125 32 32zm0 0" fill="#787680"/><path d="m133.761719 136.921875c-1.894531-.394531-3.828125-.582031-5.761719-.5625-8.488281-.011719-16.636719 3.359375-22.640625 9.363281-6.003906 6-9.371094 14.148438-9.359375 22.636719v40h-16v-48c.007812-12.71875 7.550781-24.226563 19.210938-29.308594 11.660156-5.085937 25.222656-2.78125 34.550781 5.871094zm0 0" fill="#57565c"/><path d="m176 88.359375h32v120h-32zm0 0" fill="#acabb1"/><path d="m16 88.359375h32v120h-32zm0 0" fill="#acabb1"/><path d="m224 208.359375v32h-224v-32zm0 0" fill="#898890"/><path d="m344 278.199219-72 52.878906-16 11.761719v-11.761719l80-58.71875zm0 0" fill="#ffb655"/><path d="m416 285.558594v11.28125l-32-22.558594v-11.28125l16 11.28125zm0 0" fill="#ffb655"/><path d="m360 400.359375h16v32h-16zm0 0" fill="#d1d3d4"/><path d="m466.71875 340.039062c-.007812 5.394532-3.046875 10.328126-7.859375 12.761719-4.816406 2.433594-10.589844 1.953125-14.9375-1.242187l-27.921875-20.480469-80-58.71875-80 58.71875-27.921875 20.480469c-2.445313 1.765625-5.382813 2.714844-8.398437 2.722656-4.796876-.003906-9.285157-2.367188-12-6.320312-4.253907-6.457032-2.625-15.125 3.679687-19.601563l124.640625-88 48 33.921875 32 22.558594 44.640625 31.519531c3.792969 2.683594 6.054687 7.035156 6.078125 11.679687zm0 0" fill="#ff6243"/><path d="m176 88.359375h32v16h-32zm0 0" fill="#898890"/><path d="m16 88.359375h32v16h-32zm0 0" fill="#898890"/><path d="m48 88.359375h128v16h-128zm0 0" fill="#acabb1"/><path d="m288 400.359375h16v64h-16zm0 0" fill="#754c29"/><path d="m288 400.359375h48v8h-48zm0 0" fill="#754c29"/><path d="m392 440.359375h-32c-4.417969 0-8-3.582031-8-8v-32c0-4.417969 3.582031-8 8-8h32c4.417969 0 8 3.582031 8 8v32c0 4.417969-3.582031 8-8 8zm-24-16h16v-16h-16zm0 0" fill="#754c29"/><g fill="#ee8700"><path d="m232 136.359375h16v16h-16zm0 0"/><path d="m104 264.359375h16v16h-16zm0 0"/><path d="m104 296.359375h16v16h-16zm0 0"/><path d="m104 328.359375h16v16h-16zm0 0"/><path d="m104 360.359375h16v16h-16zm0 0"/><path d="m104 392.359375h16v16h-16zm0 0"/><path d="m136 392.359375h16v16h-16zm0 0"/><path d="m168 392.359375h16v16h-16zm0 0"/><path d="m200 392.359375h16v16h-16zm0 0"/><path d="m264 136.359375h16v16h-16zm0 0"/><path d="m296 136.359375h16v16h-16zm0 0"/><path d="m328 136.359375h16v16h-16zm0 0"/><path d="m328 168.359375h16v16h-16zm0 0"/><path d="m328 200.359375h16v16h-16zm0 0"/></g></svg>