<svg height="457pt" viewBox="0 -12 457.56531 457" width="457pt" xmlns="http://www.w3.org/2000/svg"><path d="m308.78125 91.003906v125.277344c0 4.417969-3.582031 8-8 8h-144c-4.417969 0-8-3.582031-8-8v-125.277344l80-58.722656zm0 0" fill="#ffc477"/><path d="m236.78125 38.121094-72 52.882812-16 11.757813v-11.757813l80-58.722656zm0 0" fill="#ffc477"/><path d="m252.78125 160.28125h32v32h-32zm0 0" fill="#e6e7e8"/><path d="m180.78125 160.28125h48v64h-48zm0 0" fill="#8b5e3c"/><path d="m252.78125 104.28125c0 13.257812-10.742188 24-24 24-13.253906 0-24-10.742188-24-24 0-13.253906 10.746094-24 24-24 13.257812 0 24 10.746094 24 24zm0 0" fill="#ffd422"/><path d="m308.78125 8.28125v48.480469l-32-22.558594v-25.921875zm0 0" fill="#ffc477"/><path d="m236.78125 38.121094-72 52.882812-16 11.757813v-11.757813l80-58.722656zm0 0" fill="#ffb655"/><path d="m401.261719 386.441406-8.398438 47.28125-126-22.238281 8.320313-47.28125 15.757812 2.800781 94.5625 16.71875v-.078125zm0 0" fill="#3d9ae2"/><path d="m182.382812 364.203125 8.320313 47.28125-126 22.238281-8.402344-47.28125 15.761719-2.796875v.078125l94.558594-16.71875zm0 0" fill="#3d9ae2"/><path d="m399.34375 212.683594 10.640625-60.242188c1.261719-7.113281 5.65625-13.285156 11.96875-16.804687s13.871094-4.015625 20.589844-1.355469c10.75 4.667969 16.804687 16.179688 14.558593 27.679688l-26.238281 148.480468-4.160156 23.679688-38.480469 33.839844-2.71875 15.683593-94.5625-16.640625 11.042969-62.640625 12.160156-14.480469 58.796875-70.082031c5.511719-6.570312 14.121094-9.6875 22.5625-8.15625 1.3125.210938 2.597656.558594 3.839844 1.039063zm0 0" fill="#ffdaaa"/><path d="m62.0625 211.644531c8.441406-1.53125 17.050781 1.585938 22.558594 8.15625l58.800781 70.082031 12.160156 14.480469 11.039063 62.640625-94.558594 16.640625-2.71875-15.683593-38.480469-33.839844-4.160156-23.679688-26.242187-148.480468c-2.242188-11.5 3.8125-23.011719 14.5625-27.679688 6.71875-2.660156 14.277343-2.164062 20.589843 1.355469 6.308594 3.519531 10.703125 9.691406 11.96875 16.804687l10.640625 60.242188c1.242188-.480469 2.527344-.828125 3.839844-1.039063zm0 0" fill="#ffdaaa"/><path d="m308.78125 45.484375v11.277344l-32-22.558594v-11.28125zm0 0" fill="#ffb655"/><path d="m180.78125 160.28125h16v64h-16zm0 0" fill="#754c29"/><path d="m252.78125 160.28125h16v32h-16zm0 0" fill="#d1d3d4"/><path d="m359.503906 99.960938c-.007812 5.398437-3.046875 10.332031-7.863281 12.765624-4.816406 2.429688-10.589844 1.953126-14.9375-1.242187l-27.921875-20.480469-80-58.722656-80 58.722656-27.917969 20.480469c-2.445312 1.761719-5.386719 2.714844-8.402343 2.71875-4.796876 0-9.285157-2.367187-12-6.320313-4.253907-6.457031-2.625-15.125 3.683593-19.601562l124.636719-88 48 33.921875 32 22.558594 44.640625 31.519531c3.792969 2.6875 6.058594 7.035156 6.082031 11.679688zm0 0" fill="#ff6243"/><path d="m180.78125 160.28125h48v8h-48zm0 0" fill="#754c29"/><path d="m284.78125 200.28125h-32c-4.417969 0-8-3.582031-8-8v-32c0-4.417969 3.582031-8 8-8h32c4.417969 0 8 3.582031 8 8v32c0 4.417969-3.582031 8-8 8zm-24-16h16v-16h-16zm0 0" fill="#754c29"/><g fill="#ffc477"><path d="m106.605469 320.738281c-3.386719 2.839844-8.433594 2.394531-11.269531-.992187l-53.601563-63.925782c-11.304687-13.554687-9.546875-33.691406 3.9375-45.082031 2.871094-2.402343 6.152344-4.269531 9.6875-5.511719 1.726563-.6875 3.523437-1.1875 5.359375-1.488281 11.242188-1.945312 22.675781 2.222657 30.03125 10.945313l70.96875 84.566406c.894531 1.074219 1.496094 2.359375 1.742188 3.738281l1.425781 8.070313c.765625 4.347656-2.140625 8.496094-6.488281 9.265625-4.347657.761719-8.496094-2.140625-9.265626-6.488281l-1.046874-5.960938-69.597657-82.914062c-3.664062-4.402344-9.414062-6.496094-15.050781-5.46875-.679688.097656-1.347656.269531-1.992188.511718-.257812.117188-.527343.21875-.796874.304688-1.777344.601562-3.421876 1.539062-4.851563 2.757812-6.71875 5.722656-7.535156 15.808594-1.820313 22.535156l53.597657 63.863282c2.84375 3.386718 2.402343 8.433594-.984375 11.273437zm0 0"/><path d="m350.957031 320.738281c3.386719 2.839844 8.433594 2.394531 11.273438-.992187l53.640625-63.925782c11.304687-13.554687 9.546875-33.691406-3.9375-45.082031-2.871094-2.402343-6.152344-4.269531-9.6875-5.511719-1.726563-.6875-3.523438-1.1875-5.359375-1.488281-11.257813-1.960937-22.707031 2.207031-30.070313 10.945313l-70.96875 84.566406c-.898437 1.074219-1.496094 2.359375-1.746094 3.738281l-1.421874 8.070313c-.765626 4.347656 2.136718 8.496094 6.488281 9.265625 4.347656.761719 8.496093-2.140625 9.261719-6.488281l1.050781-5.960938 69.597656-82.914062c3.660156-4.402344 9.414063-6.496094 15.046875-5.46875.683594.097656 1.351562.269531 1.992188.511718.261718.117188.527343.21875.800781.304688 1.777343.601562 3.421875 1.539062 4.847656 2.757812 6.722656 5.722656 7.539063 15.808594 1.824219 22.535156l-53.597656 63.863282c-2.84375 3.386718-2.402344 8.433594.984374 11.273437zm0 0"/></g></svg>