<svg height="464pt" viewBox="0 -19 464 464" width="464pt" xmlns="http://www.w3.org/2000/svg"><path d="m88 185.398438v240h288v-240zm0 0" fill="#c49a6c"/><path d="m464 425.398438h-136c0-17.671876 14.328125-32 32-32 .398438 0 .800781.082031 1.199219.082031-.765625-2.628907-1.171875-5.347657-1.199219-8.082031 0-17.671876 14.328125-32 32-32s32 14.328124 32 32c22.089844 0 40 17.910156 40 40zm0 0" fill="#00ccb3"/><path d="m184 249.398438h48v24h-40c-4.417969 0-8-3.582032-8-8zm0 0" fill="#d1d3d4"/><path d="m280 233.398438v16h-48v-24h40c4.417969 0 8 3.582031 8 8zm0 0" fill="#d1d3d4"/><path d="m280 249.398438v16c0 4.417968-3.582031 8-8 8h-40v-24zm0 0" fill="#e6e7e8"/><path d="m192 225.398438h40v24h-48v-16c0-4.417969 3.582031-8 8-8zm0 0" fill="#e6e7e8"/><path d="m304 313.398438h48v48h-48zm0 0" fill="#e6e7e8"/><path d="m112 313.398438h48v48h-48zm0 0" fill="#e6e7e8"/><path d="m184 297.398438h96v128h-96zm0 0" fill="#8b5e3c"/><path d="m428 189.398438c6.628906 6.628906 6.628906 17.375 0 24-6.628906 6.628906-17.371094 6.628906-24 0l-60-60h48zm0 0" fill="#ff6243"/><path d="m232 25.398438c-8.824219.027343-15.972656 7.175781-16 16v16l-156 156c-6.628906 6.628906-17.371094 6.628906-24 0-6.628906-6.625-6.628906-17.371094 0-24l184.71875-184.71875c2.992188-2.996094 7.050781-4.679688 11.28125-4.679688s8.289062 1.683594 11.28125 4.679688l20.71875 20.71875zm0 0" fill="#ff6243"/><path d="m376 185.398438h-288l128-128v80c.027344 8.828124 7.175781 15.972656 16 16h112zm0 0" fill="#ffc477"/><path d="m136 425.398438h-48v-49.679688c3 2.660156 5.261719 6.046875 6.558594 9.839844.480468 0 .960937-.160156 1.441406-.160156 2.6875-.019532 5.371094.25 8 .800781 18.625 3.800781 32.003906 20.1875 32 39.199219zm0 0" fill="#a97c50"/><path d="m236.71875 52.679688c.960938-.988282 2.070312-1.824219 3.28125-2.480469-6.242188-3.652344-14.164062-2.636719-19.28125 2.480469l-132.71875 132.71875h16zm0 0" fill="#ffb655"/><path d="m88 185.398438v16l16-16zm0 0" fill="#a97c50"/><path d="m112 313.398438h16v48h-16zm0 0" fill="#d1d3d4"/><path d="m304 313.398438h16v48h-16zm0 0" fill="#d1d3d4"/><path d="m408 169.398438h-48l-16-16h48zm0 0" fill="#ff5023"/><path d="m232 25.398438h208c8.835938 0 16 7.164062 16 16v96c0 8.835937-7.164062 16-16 16h-208c-8.835938 0-16-7.164063-16-16v-96c0-8.835938 7.164062-16 16-16zm0 0" fill="#ffa733"/><path d="m88 386.199219c18.625 3.800781 32.003906 20.1875 32 39.199219h-120c0-13.253907 10.746094-24 24-24 3.671875.023437 7.285156.898437 10.558594 2.5625-1.660156-3.273438-2.535156-6.890626-2.558594-10.5625-.035156-11.707032 8.40625-21.722657 19.953125-23.667969 11.546875-1.945313 22.804687 4.753906 26.605469 15.828125.480468 0 .960937-.160156 1.441406-.160156 2.6875-.019532 5.371094.25 8 .800781zm0 0" fill="#00ccb3"/><g fill="#754c29"><path d="m184 297.398438h16v128h-16zm0 0"/><path d="m184 297.398438h96v16h-96zm0 0"/><path d="m352 369.398438h-48c-4.417969 0-8-3.582032-8-8v-48c0-4.417969 3.582031-8 8-8h48c4.417969 0 8 3.582031 8 8v48c0 4.417968-3.582031 8-8 8zm-40-16h32v-32h-32zm0 0"/><path d="m160 369.398438h-48c-4.417969 0-8-3.582032-8-8v-48c0-4.417969 3.582031-8 8-8h48c4.417969 0 8 3.582031 8 8v48c0 4.417968-3.582031 8-8 8zm-40-16h32v-32h-32zm0 0"/><path d="m272 217.398438h-80c-8.835938 0-16 7.164062-16 16v32c0 8.835937 7.164062 16 16 16h80c8.835938 0 16-7.164063 16-16v-32c0-8.835938-7.164062-16-16-16zm0 24h-32v-8h32zm-48-8v8h-32v-8zm-32 24h32v8h-32zm48 8v-8h32v8zm0 0"/></g><path d="m216 377.398438h-16v-16h8v-16h-8v-16h16c4.417969 0 8 3.582031 8 8v32c0 4.417968-3.582031 8-8 8zm0 0" fill="#603913"/><path d="m256 65.398438h8c4.417969 0 8 3.582031 8 8h16c0-13.253907-10.746094-24-24-24h-8c-13.253906 0-24 10.746093-24 24 0 13.253906 10.746094 24 24 24h8c4.417969 0 8 3.582031 8 8 0 4.417968-3.582031 8-8 8h-8c-4.417969 0-8-3.582032-8-8h-16c0 13.253906 10.746094 24 24 24h8c13.253906 0 24-10.746094 24-24 0-13.253907-10.746094-24-24-24h-8c-4.417969 0-8-3.582032-8-8 0-4.417969 3.582031-8 8-8zm0 0" fill="#e6e7e8"/><path d="m440 65.398438v-16h-32c-4.417969 0-8 3.582031-8 8v64c0 4.417968 3.582031 8 8 8h32v-16h-24v-16h16v-16h-16v-16zm0 0" fill="#e6e7e8"/><path d="m368 49.398438h-16v72c0 4.417968 3.582031 8 8 8h32v-16h-24zm0 0" fill="#e6e7e8"/><path d="m320 49.398438c-13.253906 0-24 10.746093-24 24v56h16v-32h16v32h16v-56c0-13.253907-10.746094-24-24-24zm-8 32v-8c0-4.417969 3.582031-8 8-8s8 3.582031 8 8v8zm0 0" fill="#e6e7e8"/></svg>