<svg height="463pt" viewBox="0 0 463.98799 463" width="463pt" xmlns="http://www.w3.org/2000/svg"><path d="m463.988281 112.453125h-64c-8.824219-.027344-15.972656-7.175781-16-16v-64zm0 0" fill="#bcbec0"/><path d="m463.988281 112.453125v288c0 17.671875-14.328125 32-32 32h-168v-128c.066407-23.734375-8.71875-46.640625-24.640625-64.242187 24.070313-13.535157 36.742188-40.980469 31.433594-68.082032-5.304688-27.097656-27.394531-47.738281-54.792969-51.195312v-40.480469c.003907-17.3125-5.609375-34.15625-16-48h184v64c.027344 8.824219 7.175781 15.972656 16 16zm0 0" fill="#e6e7e8"/><path d="m351.988281 232.453125h32v32h-32zm0 0" fill="#8b5e3c"/><path d="m415.988281 200.453125v64h-32v-32h-32v32h-32v-64zm0 0" fill="#ffc477"/><path d="m367.988281 144.453125 64 56h-128zm0 0" fill="#ff6243"/><path d="m167.988281 272.453125-32 72-32-72 32-24zm0 0" fill="#e6e7e8"/><path d="m167.988281 208.453125 16 24-16 40-32-24zm0 0" fill="#d1d3d4"/><path d="m103.988281 208.453125 32 40-32 24-16-40zm0 0" fill="#d1d3d4"/><path d="m215.988281 464.453125h-208v-160c0-53.019531 42.980469-96 96-96l-16 24 16 40 32 72 32-72 16-40-16-24c53.019531 0 96 42.980469 96 96v160zm0 0" fill="#00e7f0"/><path d="m167.988281 173.171875v35.28125l-32 40-32-40v-35.28125c5.058594 2.160156 10.5 3.277344 16 3.28125h32c5.5-.003906 10.941407-1.121094 16-3.28125zm0 0" fill="#ffdaaa"/><path d="m80.789062 69.09375c10.398438.320312 10.71875 6.71875 21.597657 6.71875 11.203125 0 11.203125-6.71875 22.402343-6.71875 11.199219 0 11.117188 6.71875 22.320313 6.71875 11.199219 0 11.277344-6.71875 22.480469-6.71875 11.199218 0 11.199218 6.71875 22.398437 6.71875v60.640625c-.035156 15.910156-9.445312 30.300781-24 36.71875-5.058593 2.160156-10.5 3.277344-16 3.28125h-32c-5.5-.003906-10.941406-1.121094-16-3.28125-14.554687-6.417969-23.964843-20.808594-24-36.71875v-48zm0 0" fill="#ffdaaa"/><path d="m167.988281 173.171875v16c-5.058593 2.160156-10.5 3.277344-16 3.28125h-32c-5.5-.003906-10.941406-1.121094-16-3.28125v-16c5.058594 2.160156 10.5 3.277344 16 3.28125h32c5.5-.003906 10.941407-1.121094 16-3.28125zm0 0" fill="#f1cfa2"/><path d="m215.988281 120.933594v-40.480469c.003907-17.3125-5.609375-34.15625-16-48-2.261719-3.039063-4.746093-5.898437-7.441406-8.558594-21.316406-21.296875-52.792969-28.804687-81.429687-19.429687-28.636719 9.378906-49.574219 34.046875-54.167969 63.828125-.648438 4.019531-.96875 8.085937-.960938 12.160156v40.480469c-27.398437 3.457031-49.488281 24.097656-54.796875 51.195312-5.304687 27.101563 7.367188 54.546875 31.4375 68.082032 18.191406-20.246094 44.140625-31.792969 71.359375-31.757813v-35.28125c-14.554687-6.417969-23.964843-20.808594-24-36.71875v-48l.800781-19.359375c10.398438.320312 10.71875 6.71875 21.597657 6.71875 11.203125 0 11.203125-6.71875 22.402343-6.71875 11.199219 0 11.117188 6.71875 22.320313 6.71875 11.199219 0 11.277344-6.71875 22.480469-6.71875 11.199218 0 11.199218 6.71875 22.398437 6.71875v60.640625c-.035156 15.910156-9.445312 30.300781-24 36.71875v35.28125c27.21875-.035156 53.167969 11.511719 71.359375 31.757813 24.070313-13.535157 36.742188-40.980469 31.433594-68.082032-5.304688-27.097656-27.394531-47.738281-54.792969-51.195312zm0 0" fill="#ffb655"/><path d="m159.988281 104.453125c-.511719-.015625-1.019531-.066406-1.519531-.160156-.53125-.074219-1.042969-.238281-1.519531-.480469-.511719-.175781-.996094-.417969-1.441407-.71875l-1.199218-.960938c-1.460938-1.535156-2.289063-3.5625-2.320313-5.679687.011719-1.046875.230469-2.078125.640625-3.039063.40625-.96875.972656-1.863281 1.679688-2.640624 2.5625-2.542969 6.511718-3.054688 9.636718-1.246094 3.128907 1.808594 4.65625 5.488281 3.730469 8.976562-.925781 3.492188-4.078125 5.929688-7.6875 5.949219zm0 0" fill="#8b5e3c"/><path d="m111.988281 104.453125c-2.128906.019531-4.175781-.816406-5.679687-2.320313-1.507813-1.503906-2.34375-3.550781-2.320313-5.679687.011719-1.046875.230469-2.078125.640625-3.039063.40625-.96875.972656-1.863281 1.679688-2.640624 3.207031-2.960938 8.152344-2.960938 11.359375 0 .707031.777343 1.273437 1.671874 1.679687 2.640624.410156.960938.628906 1.992188.640625 3.039063-.03125 2.117187-.859375 4.144531-2.320312 5.679687l-1.199219.960938c-.445312.300781-.929688.542969-1.441406.71875-.453125.230469-.9375.394531-1.4375.480469-.53125.089843-1.066406.140625-1.601563.160156zm0 0" fill="#8b5e3c"/><path d="m191.988281 83.8125c-5.445312.089844-10.792969-1.480469-15.328125-4.496094-4.265625-2.964844-9.925781-2.964844-14.191406 0-9.332031 6-21.308594 6-30.640625 0-4.253906-2.953125-9.898437-2.953125-14.152344 0-9.320312 6.007813-21.292969 6.007813-30.617187 0-2.035156-1.523437-4.527344-2.304687-7.070313-2.222656v-16c5.441407-.089844 10.785157 1.480469 15.3125 4.503906 4.25 2.953125 9.890625 2.953125 14.144531 0 9.320313-6.007812 21.292969-6.007812 30.613282 0 2.042968 1.519532 4.539062 2.300782 7.082031 2.214844 2.546875.078125 5.046875-.707031 7.09375-2.222656 9.339844-5.996094 21.316406-5.996094 30.65625 0 2.050781 1.515625 4.550781 2.300781 7.097656 2.222656zm0 0" fill="#ee8700"/><path d="m223.988281 464.453125h-16v-88c0-2.519531 1.183594-4.890625 3.199219-6.398437 7.199219-5.433594 12.800781-22.523438 12.800781-33.601563 0-11.082031-5.601562-28.175781-12.800781-33.601563-2.015625-1.507812-3.199219-3.878906-3.199219-6.398437v-16h16v12.421875c21.335938 25.136719 21.335938 62.019531 0 87.152344zm0 0" fill="#00d7df"/><path d="m63.988281 464.453125h-16v-84.425781c-21.335937-25.132813-21.335937-62.015625 0-87.152344v-12.421875h16v16c0 2.519531-1.1875 4.890625-3.199219 6.398437-7.199218 5.425782-12.800781 22.511719-12.800781 33.601563 0 11.085937 5.601563 28.175781 12.800781 33.601563 2.011719 1.507812 3.199219 3.878906 3.199219 6.398437zm0 0" fill="#00d7df"/><path d="m311.988281 288.453125h32v16h-32zm0 0" fill="#898890"/><path d="m359.988281 288.453125h64v16h-64zm0 0" fill="#acabb1"/><path d="m247.988281 80.453125h16v16h-16zm0 0" fill="#898890"/><g fill="#acabb1"><path d="m279.988281 80.453125h64v16h-64zm0 0"/><path d="m311.988281 328.453125h112v16h-112zm0 0"/><path d="m311.988281 368.453125h112v16h-112zm0 0"/></g><path d="m279.988281 112.453125h64v16h-64zm0 0" fill="#898890"/><path d="m135.988281 152.453125c-8.730469 0-16.773437-4.742187-21-12.382813-1.261719-2.492187-1.136719-5.460937.335938-7.832031 1.472656-2.375 4.070312-3.808593 6.863281-3.785156 2.757812-.089844 5.34375 1.335937 6.738281 3.71875 1.382813 2.628906 4.109375 4.277344 7.078125 4.277344 2.972656 0 5.695313-1.648438 7.082032-4.277344 1.386718-2.378906 3.964843-3.804687 6.71875-3.71875 2.789062-.023437 5.390624 1.410156 6.863281 3.785156 1.46875 2.371094 1.597656 5.339844.335937 7.832031-4.230468 7.644532-12.277344 12.386719-21.015625 12.382813zm0 0" fill="#754c29"/></svg>