<svg height="464pt" viewBox="0 0 464.00002 464" width="464pt" xmlns="http://www.w3.org/2000/svg"><path d="m464 112v288c0 17.671875-14.328125 32-32 32h-176v-128c.027344-41.683594-26.875-78.609375-66.558594-91.359375-9.507812-3.09375-19.445312-4.660156-29.441406-4.640625v-32c17.671875 0 32-14.328125 32-32v-24h8c8.808594-.066406 15.933594-7.191406 16-16v-72h168v64c.027344 8.824219 7.175781 15.972656 16 16zm0 0" fill="#e6e7e8"/><path d="m200 88c8.824219.027344 15.972656 7.175781 16 16-.066406 8.808594-7.191406 15.933594-16 16h-8v-32zm0 0" fill="#f1cfa2"/><path d="m64 88v32h-8c-8.808594-.066406-15.933594-7.191406-16-16 .015625-4.410156 1.871094-8.617188 5.121094-11.601562v-.078126c2.921875-2.808593 6.828125-4.359374 10.878906-4.320312zm0 0" fill="#f1cfa2"/><path d="m296 168h32v48h-32zm0 0" fill="#8b5e3c"/><path d="m360 136v80h-32v-48h-32v48h-32v-80zm0 0" fill="#ffc477"/><path d="m312 80 72 56h-144zm0 0" fill="#ff6243"/><path d="m464 112h-64c-8.824219-.027344-15.972656-7.175781-16-16v-64zm0 0" fill="#bcbec0"/><path d="m160 208 16 24-16 40-32-24zm0 0" fill="#d1d3d4"/><path d="m96 208 32 40-32 24-16-40zm0 0" fill="#d1d3d4"/><path d="m160 272-32 72-32-72 32-24zm0 0" fill="#e6e7e8"/><path d="m189.441406 212.640625 18.558594 43.359375-24 16 16 16-2.800781 2.160156-69.199219 53.839844 32-72 16-40-16-24c9.996094-.019531 19.933594 1.546875 29.441406 4.640625zm0 0" fill="#1a6fb0"/><path d="m80 232 16 40 32 72-69.199219-53.839844-2.800781-2.160156 16-16-24-16 18.558594-43.359375c9.507812-3.101563 19.445312-4.667969 29.441406-4.640625zm0 0" fill="#1a6fb0"/><path d="m189.441406 212.640625 18.558594 43.359375-24 16 16 16-2.800781 2.160156-69.199219 53.839844v120h128v-160c.027344-41.683594-26.875-78.609375-66.558594-91.359375zm0 0" fill="#3d9ae2"/><path d="m58.800781 290.160156-2.800781-2.160156 16-16-24-16 18.558594-43.359375c-39.683594 12.75-66.5859378 49.675781-66.558594 91.359375v160h128v-120zm0 0" fill="#1e81ce"/><path d="m160 176v32l-32 40-32-40v-32zm0 0" fill="#ffdaaa"/><path d="m192 104v40c0 17.671875-14.328125 32-32 32h-64c-17.671875 0-32-14.328125-32-32v-94.078125c11.335938 9.121094 25.449219 14.089844 40 14.078125 0 0 40 0 56-16 0 0 8 24 32 24zm0 0" fill="#ffdaaa"/><path d="m64 64v24h-8c-4.050781-.039062-7.957031 1.511719-10.878906 4.320312l-8.160156-32.398437c-1.210938-4.785156-.144532-9.863281 2.890624-13.753906 3.03125-3.894531 7.691407-6.171875 12.628907-6.167969h1.597656c2.894531 3.695312 6.226563 7.027344 9.921875 9.921875zm0 0" fill="#ffa733"/><path d="m216 32v72c-.027344-8.824219-7.175781-15.972656-16-16h-8v-16c-24 0-32-24-32-24-16 16-56 16-56 16-14.550781.011719-28.664062-4.957031-40-14.078125-3.695312-2.894531-7.027344-6.226563-9.921875-9.921875-9.121094-11.335938-14.089844-25.449219-14.078125-40h144c17.671875 0 32 14.328125 32 32zm0 0" fill="#ffb655"/><path d="m96 176h64v16h-64zm0 0" fill="#f1cfa2"/><path d="m40 304h16v160h-16zm0 0" fill="#1a6fb0"/><path d="m200 304h16v160h-16zm0 0" fill="#1e81ce"/><path d="m152 96c-2.117188-.03125-4.144531-.859375-5.679688-2.320312-.707031-.777344-1.273437-1.671876-1.679687-2.640626-.410156-.960937-.628906-1.992187-.640625-3.039062.015625-.535156.070312-1.070312.160156-1.601562.085938-.5.25-.984376.480469-1.4375.175781-.511719.417969-.996094.71875-1.441407l.960937-1.199219 1.199219-.960937c.445313-.300781.929688-.542969 1.441407-.71875.453124-.230469.9375-.394531 1.4375-.480469 1.558593-.328125 3.183593-.160156 4.640624.480469.96875.40625 1.863282.972656 2.640626 1.679687 1.460937 1.535157 2.289062 3.5625 2.320312 5.679688.027344 1.050781-.191406 2.089844-.640625 3.039062-.386719.980469-.957031 1.875-1.679687 2.640626-.777344.707031-1.671876 1.273437-2.640626 1.679687-.960937.410156-1.992187.628906-3.039062.640625zm0 0" fill="#8b5e3c"/><path d="m104 96c-2.117188-.03125-4.144531-.859375-5.679688-2.320312-.707031-.777344-1.273437-1.671876-1.679687-2.640626-.410156-.960937-.628906-1.992187-.640625-3.039062.015625-.535156.070312-1.070312.160156-1.601562.085938-.5.25-.984376.480469-1.4375.175781-.511719.417969-.996094.71875-1.441407.296875-.417969.617187-.820312.960937-1.199219 2.300782-2.269531 5.742188-2.933593 8.71875-1.679687.96875.40625 1.863282.972656 2.640626 1.679687.34375.378907.664062.78125.960937 1.199219.300781.445313.542969.929688.71875 1.441407.230469.453124.394531.9375.480469 1.4375.089844.53125.144531 1.066406.160156 1.601562-.011719 1.046875-.230469 2.078125-.640625 3.039062-.726563 2.011719-2.308594 3.59375-4.320313 4.320313-.960937.410156-1.992187.628906-3.039062.640625zm0 0" fill="#8b5e3c"/><path d="m288 256h32v16h-32zm0 0" fill="#57565c"/><path d="m336 256h64v16h-64zm0 0" fill="#787680"/><path d="m288 296h112v16h-112zm0 0" fill="#57565c"/><path d="m400 362.878906c-5.382812.113282-10.707031-1.148437-15.472656-3.664062-5.351563-2.792969-11.734375-2.792969-17.085938 0-9.726562 4.894531-21.195312 4.894531-30.921875 0-2.59375-1.464844-5.542969-2.191406-8.519531-2.09375v-16c5.378906-.109375 10.699219 1.15625 15.457031 3.671875 5.34375 2.789062 11.71875 2.789062 17.0625 0 9.734375-4.886719 21.203125-4.886719 30.9375 0 2.601563 1.464843 5.558594 2.1875 8.542969 2.085937zm0 0" fill="#57565c"/><path d="m128 144c-8.730469 0-16.773438-4.742188-21-12.382812-1.261719-2.492188-1.132812-5.460938.335938-7.832032 1.472656-2.371094 4.074218-3.808594 6.863281-3.785156 2.757812-.089844 5.34375 1.335938 6.738281 3.71875 1.382812 2.628906 4.109375 4.277344 7.078125 4.277344 2.972656 0 5.695313-1.648438 7.082031-4.277344 1.386719-2.375 3.964844-3.804688 6.71875-3.71875 2.792969-.023438 5.390625 1.414062 6.863282 3.785156 1.472656 2.371094 1.597656 5.339844.335937 7.832032-4.226563 7.644531-12.277344 12.386718-21.015625 12.382812zm0 0" fill="#8b5e3c"/></svg>