<svg height="480pt" viewBox="0 0 480 480" width="480pt" xmlns="http://www.w3.org/2000/svg"><path d="m244.695312 41.195312 11.890626-10.707031 117.355468 130.324219-11.886718 10.707031zm0 0" fill="#cc7400"/><path d="m106.050781 160.800781 117.375-130.304687 11.886719 10.707031-117.375 130.304687zm0 0" fill="#cc7400"/><path d="m250.640625 35.839844c-6.011719 5.546875-15.269531 5.546875-21.28125 0-3.410156-2.988282-5.363281-7.304688-5.359375-11.839844 0-8.835938 7.164062-16 16-16s16 7.164062 16 16c.003906 4.535156-1.949219 8.851562-5.359375 11.839844zm0 0" fill="#ff5023"/><path d="m24 200h432c8.835938 0 16 7.164062 16 16v240c0 8.835938-7.164062 16-16 16h-432c-8.835938 0-16-7.164062-16-16v-240c0-8.835938 7.164062-16 16-16zm0 0" fill="#8b5e3c"/><path d="m32 216h416c4.417969 0 8 3.582031 8 8v224c0 4.417969-3.582031 8-8 8h-416c-4.417969 0-8-3.582031-8-8v-224c0-4.417969 3.582031-8 8-8zm0 0" fill="#c49a6c"/><g fill="#e6e7e8"><path d="m184 264v-16h-40c-4.417969 0-8 3.582031-8 8v72h16v-32h24v-16h-24v-16zm0 0"/><path d="m240 328h-16c-13.253906 0-24-10.746094-24-24v-32c0-13.253906 10.746094-24 24-24h16c13.253906 0 24 10.746094 24 24v32c0 13.253906-10.746094 24-24 24zm-16-64c-4.417969 0-8 3.582031-8 8v32c0 4.417969 3.582031 8 8 8h16c4.417969 0 8-3.582031 8-8v-32c0-4.417969-3.582031-8-8-8zm0 0"/><path d="m344 272c0-13.253906-10.746094-24-24-24h-32c-4.417969 0-8 3.582031-8 8v72h16v-32h16c8.835938 0 16 7.164062 16 16v16h16v-16c-.015625-8.070312-3.105469-15.835938-8.640625-21.710938 5.449219-4.511718 8.617187-11.214843 8.640625-18.289062zm-48 8v-16h24c4.417969 0 8 3.582031 8 8s-3.582031 8-8 8zm0 0"/><path d="m136 424h-32v-16h32c4.417969 0 8-3.582031 8-8s-3.582031-8-8-8h-8c-13.253906 0-24-10.746094-24-24s10.746094-24 24-24h32v16h-32c-4.417969 0-8 3.582031-8 8s3.582031 8 8 8h8c13.253906 0 24 10.746094 24 24s-10.746094 24-24 24zm0 0"/><path d="m208 344c-17.671875 0-32 14.328125-32 32v48h16v-24h32v24h16v-48c0-17.671875-14.328125-32-32-32zm-16 40v-8c0-8.835938 7.164062-16 16-16s16 7.164062 16 16v8zm0 0"/><path d="m304 424h-40c-4.417969 0-8-3.582031-8-8v-72h16v64h32zm0 0"/><path d="m376 360v-16h-48c-4.417969 0-8 3.582031-8 8v64c0 4.417969 3.582031 8 8 8h48v-16h-40v-16h24v-16h-24v-16zm0 0"/></g><path d="m119.769531 205.367188-11.859375-10.734376c2.636719-2.914062 4.09375-6.703124 4.089844-10.632812 0-8.835938-7.164062-16-16-16s-16 7.164062-16 16c-.003906 3.929688 1.453125 7.71875 4.089844 10.632812l-11.859375 10.734376c-11.542969-12.808594-10.867188-32.460938 1.535156-44.441407s32.066406-11.980469 44.46875 0 13.078125 31.632813 1.535156 44.441407zm0 0" fill="#acabb1"/><path d="m407.769531 205.367188-11.859375-10.734376c2.636719-2.914062 4.09375-6.703124 4.089844-10.632812 0-8.835938-7.164062-16-16-16s-16 7.164062-16 16c-.003906 3.929688 1.453125 7.71875 4.089844 10.632812l-11.859375 10.734376c-11.542969-12.808594-10.867188-32.460938 1.535156-44.441407s32.066406-11.980469 44.46875 0 13.078125 31.632813 1.535156 44.441407zm0 0" fill="#acabb1"/><path d="m48 280h-16v-32c0-13.253906 10.746094-24 24-24h32v16h-32c-4.417969 0-8 3.582031-8 8zm0 0" fill="#754c29"/><path d="m424 448h-32v-16h32c4.417969 0 8-3.582031 8-8v-32h16v32c0 13.253906-10.746094 24-24 24zm0 0" fill="#754c29"/><path d="m240 48c-13.253906 0-24-10.746094-24-24s10.746094-24 24-24 24 10.746094 24 24-10.746094 24-24 24zm0-32c-4.417969 0-8 3.582031-8 8s3.582031 8 8 8 8-3.582031 8-8-3.582031-8-8-8zm0 0" fill="#754c29"/><path d="m456 480h-432c-13.253906 0-24-10.746094-24-24v-240c0-13.253906 10.746094-24 24-24h432c13.253906 0 24 10.746094 24 24v240c0 13.253906-10.746094 24-24 24zm-432-272c-4.417969 0-8 3.582031-8 8v240c0 4.417969 3.582031 8 8 8h432c4.417969 0 8-3.582031 8-8v-240c0-4.417969-3.582031-8-8-8zm0 0" fill="#754c29"/></svg>