<svg height="464pt" viewBox="0 -56 464 464" width="464pt" xmlns="http://www.w3.org/2000/svg"><path d="m0 0h240v192h-240zm0 0" fill="#d1d3d4"/><path d="m464 216v80h-24.480469c-3.949219-32.078125-31.199219-56.175781-63.519531-56.175781s-59.570312 24.097656-63.519531 56.175781h-40.480469v-192h112l16 96zm0 0" fill="#ffa733"/><path d="m144 304c0 22.089844-17.910156 40-40 40s-40-17.910156-40-40 17.910156-40 40-40 40 17.910156 40 40zm0 0" fill="#57565c"/><path d="m144 112h32v32h-32zm0 0" fill="#8b5e3c"/><path d="m176 112h-32v32h-24v-56h80v56h-24zm0 0" fill="#ffc477"/><path d="m160 32 56 56h-112zm0 0" fill="#ff6243"/><path d="m416 304c0 22.089844-17.910156 40-40 40s-40-17.910156-40-40 17.910156-40 40-40 40 17.910156 40 40zm0 0" fill="#57565c"/><path d="m360 128 16 80h-64v-80zm0 0" fill="#e6e7e8"/><path d="m0 216h272v80h-104.480469c-3.949219-32.078125-31.199219-56.175781-63.519531-56.175781s-59.570312 24.097656-63.519531 56.175781h-40.480469zm0 0" fill="#ff9811"/><path d="m112 304c0 4.417969-3.582031 8-8 8s-8-3.582031-8-8 3.582031-8 8-8 8 3.582031 8 8zm0 0" fill="#acabb1"/><path d="m384 304c0 4.417969-3.582031 8-8 8s-8-3.582031-8-8 3.582031-8 8-8 8 3.582031 8 8zm0 0" fill="#acabb1"/><path d="m376 352c-26.507812 0-48-21.492188-48-48s21.492188-48 48-48 48 21.492188 48 48c-.027344 26.5-21.5 47.972656-48 48zm0-80c-17.671875 0-32 14.328125-32 32s14.328125 32 32 32 32-14.328125 32-32-14.328125-32-32-32zm0 0" fill="#2d2d30"/><path d="m104 352c-26.507812 0-48-21.492188-48-48s21.492188-48 48-48 48 21.492188 48 48c-.027344 26.5-21.5 47.972656-48 48zm0-80c-17.671875 0-32 14.328125-32 32s14.328125 32 32 32 32-14.328125 32-32-14.328125-32-32-32zm0 0" fill="#2d2d30"/><path d="m440 232h24v16h-24zm0 0" fill="#cc7400"/><path d="m376 320c-8.835938 0-16-7.164062-16-16s7.164062-16 16-16 16 7.164062 16 16-7.164062 16-16 16zm0-16" fill="#acabb1"/><path d="m104 320c-8.835938 0-16-7.164062-16-16s7.164062-16 16-16 16 7.164062 16 16-7.164062 16-16 16zm0-16" fill="#acabb1"/><path d="m296 224h32v16h-32zm0 0" fill="#ee8700"/><g fill="#ff9811"><path d="m24 48h16v16h-16zm0 0"/><path d="m56 48h32v16h-32zm0 0"/><path d="m72 88h16v16h-16zm0 0"/><path d="m40 88h16v16h-16zm0 0"/><path d="m64 128h32v16h-32zm0 0"/></g></svg>